<svg width="32" height="33" viewBox="0 0 32 33" fill="none" xmlns="http://www.w3.org/2000/svg">
<g clip-path="url(#clip0_82_2153)">
<path d="M23.3333 26.2834H29.3333M29.3333 26.2834L26 22.95M29.3333 26.2834L26 29.6167M16 3.6167L12.6667 6.95003L16 10.2834" stroke="#ACB1C3" stroke-width="2" stroke-linecap="round" stroke-linejoin="round"/>
<path d="M14 6.94995C16.6522 6.94995 19.1957 8.00352 21.0711 9.87888C22.9464 11.7542 24 14.2978 24 16.95C24 19.6021 22.9464 22.1457 21.0711 24.021C19.1957 25.8964 16.6522 26.95 14 26.95H2.66667" stroke="#ACB1C3" stroke-width="2" stroke-linecap="round" stroke-linejoin="round"/>
<path d="M9.008 8.28345C7.48538 9.16066 6.22079 10.4236 5.34161 11.9451C4.46242 13.4666 3.99968 15.1929 4 16.9501C4 19.2008 4.744 21.2781 6 22.9501" stroke="#ACB1C3" stroke-width="2" stroke-linecap="round" stroke-linejoin="round"/>
</g>
<defs>
<clipPath id="clip0_82_2153">
<rect width="32" height="32" fill="white" transform="translate(0 0.949951)"/>
</clipPath>
</defs>
</svg>
