<svg width="32" height="32" viewBox="0 0 32 32" fill="none" xmlns="http://www.w3.org/2000/svg">
<g clip-path="url(#clip0_82_2438)">
<path d="M10.1867 13.84C10.1867 14.1733 10.2133 14.44 10.28 14.6667C10.3467 14.8267 10.44 15.04 10.56 15.28C10.6133 15.3333 10.6267 15.4133 10.6267 15.48C10.6267 15.5733 10.5733 15.6533 10.4533 15.7467L9.89333 16.12C9.81333 16.1733 9.73333 16.2 9.66667 16.2C9.57333 16.2 9.49333 16.1467 9.4 16.0667C9.28 15.9333 9.17333 15.8 9.08 15.6533C9 15.5067 8.90667 15.3333 8.81333 15.1333C8.12 15.9467 7.25333 16.36 6.2 16.36C5.45333 16.36 4.86667 16.1467 4.42667 15.72C4 15.2933 3.77333 14.72 3.77333 14C3.77333 13.2667 4.04 12.6667 4.57333 12.1867C5.12 11.7333 5.84 11.4933 6.74667 11.4933C7.05333 11.4933 7.33333 11.52 7.69333 11.5733C8 11.6133 8.36 11.68 8.70667 11.76V11.12C8.70667 10.44 8.57333 10 8.29333 9.69334C8 9.41334 7.53333 9.29334 6.85333 9.29334C6.53333 9.29334 6.21333 9.33335 5.89333 9.40001C5.56 9.48001 5.24 9.57335 4.93333 9.70668C4.78667 9.76001 4.66667 9.80001 4.62667 9.81334C4.56 9.84001 4.52 9.84001 4.48 9.84001C4.36 9.84001 4.29333 9.76001 4.29333 9.57334V9.13334C4.29333 9.00001 4.30667 8.89334 4.36 8.82668C4.4 8.76001 4.48 8.70668 4.6 8.66668C4.92 8.48001 5.28 8.34668 5.72 8.24001C6.17262 8.12166 6.63884 8.06339 7.10667 8.06668C8.16 8.06668 8.93333 8.30668 9.42667 8.78668C9.92 9.26668 10.16 10 10.16 10.9733V13.84H10.1867ZM6.58667 15.2C6.88 15.2 7.17333 15.1467 7.49333 15.04C7.81333 14.9333 8.09333 14.7333 8.33333 14.4667C8.48 14.2933 8.58667 14.1067 8.66667 13.8933C8.66667 13.68 8.73333 13.4267 8.73333 13.12V12.76C8.46667 12.6667 8.2 12.6667 7.90666 12.6C7.63203 12.57 7.35621 12.5522 7.08 12.5467C6.48 12.5467 6.05333 12.6667 5.76 12.9067C5.46667 13.1467 5.33333 13.48 5.33333 13.92C5.33333 14.3467 5.42666 14.6667 5.65333 14.8667C5.86666 15.0933 6.17333 15.2 6.58667 15.2ZM13.7067 16.1467C13.5776 16.1505 13.4495 16.1231 13.3333 16.0667C13.2933 16 13.2267 15.88 13.1733 15.72L11.0933 8.86668C11.04 8.66668 11.0133 8.57334 11.0133 8.50668C11.0133 8.36001 11.08 8.28001 11.2267 8.28001H12.0933C12.2667 8.28001 12.3867 8.30668 12.44 8.37335C12.52 8.42668 12.5733 8.54668 12.6267 8.72001L14.1067 14.5867L15.4933 8.72001C15.5333 8.54668 15.5867 8.42668 15.6667 8.37335C15.7333 8.32001 15.8533 8.28001 16 8.28001H16.7333C16.8933 8.28001 17.0133 8.30668 17.08 8.37335C17.1467 8.42668 17.2133 8.54668 17.2533 8.72001L18.6667 14.6667L20.1867 8.72001C20.24 8.54668 20.3067 8.42668 20.36 8.37335C20.44 8.32001 20.5467 8.28001 20.7067 8.28001H21.5333C21.68 8.28001 21.76 8.36001 21.76 8.50668C21.76 8.54668 21.7467 8.60001 21.7333 8.66668C21.7333 8.66668 21.7067 8.77334 21.68 8.86668L19.5333 15.72C19.48 15.9067 19.4267 16 19.3333 16.0667C19.28 16.12 19.16 16.16 19.0133 16.16H18.2533C18.08 16.16 18 16.1333 17.8933 16.0667C17.8037 15.9716 17.7475 15.8499 17.7333 15.72L16.36 10L14.9867 15.7067C14.9467 15.88 14.8933 16 14.8267 16.0667C14.7166 16.1267 14.5918 16.1544 14.4667 16.1467H13.7067ZM25.1067 16.3867C24.6667 16.3867 24.1733 16.3333 23.7333 16.2267C23.2933 16.12 22.9467 16 22.72 15.88C22.6042 15.8243 22.507 15.7363 22.44 15.6267C22.4038 15.5519 22.3855 15.4697 22.3867 15.3867V14.9333C22.3867 14.7467 22.4533 14.6667 22.5867 14.6667H22.7467C22.8 14.6667 22.88 14.7333 22.9733 14.7733C23.2667 14.9067 23.6 15.0133 23.9467 15.08C24.3067 15.1467 24.6667 15.1867 25 15.1867C25.56 15.1867 26 15.0933 26.2933 14.8933C26.6 14.6667 26.76 14.4133 26.76 14.0533C26.76 13.8 26.6667 13.6 26.52 13.4267C26.36 13.2667 26.0533 13.1067 25.6267 12.9733L24.3333 12.5733C23.6933 12.36 23.2133 12.0667 22.92 11.6667C22.6337 11.2964 22.4789 10.8414 22.48 10.3733C22.48 10 22.56 9.68001 22.72 9.40001C22.88 9.10668 23.0933 8.86668 23.3333 8.66668C23.6267 8.46668 23.92 8.32001 24.28 8.21334C24.6267 8.10668 25 8.05334 25.4 8.05334C25.5867 8.05334 25.7867 8.06668 26 8.09335C26.1867 8.12001 26.3733 8.16001 26.56 8.18668C26.7467 8.24001 26.9067 8.28001 27.0667 8.33334C27.2267 8.38668 27.3333 8.44001 27.44 8.49334C27.56 8.56001 27.6533 8.62668 27.7067 8.70668C27.76 8.78668 27.7867 8.88001 27.7867 9.00001V9.42668C27.7867 9.61335 27.72 9.70668 27.5867 9.70668C27.52 9.70668 27.4 9.66668 27.24 9.60001C26.7467 9.37334 26.1733 9.25334 25.5467 9.25334C25.04 9.25334 24.6667 9.33334 24.36 9.50668C24.0933 9.66668 23.9467 9.93334 23.9467 10.2933C23.9467 10.5467 24.04 10.76 24.2133 10.92C24.3867 11.0933 24.72 11.2533 25.1867 11.4133L26.4533 11.8133C27.0933 12 27.5467 12.2933 27.8267 12.6667C28.0933 13.0267 28.2267 13.44 28.2267 13.9067C28.2267 14.28 28.1467 14.6267 28 14.9333C27.84 15.2267 27.6267 15.4933 27.3333 15.7067C27.08 15.9333 26.7467 16.0933 26.3733 16.2133C26 16.3333 25.5467 16.3867 25.1067 16.3867ZM26.7733 20.7067C23.8533 22.8533 19.6133 24 16 24C10.8667 24 6.26666 22.1067 2.78666 18.9733C2.50666 18.72 2.76 18.3867 3.09333 18.5867C6.85333 20.76 11.48 22.08 16.28 22.08C19.52 22.08 23.08 21.4133 26.3467 20C26.84 19.8 27.2533 20.3467 26.7733 20.7067ZM28 19.3333C27.6133 18.84 25.52 19.0933 24.5733 19.2C24.2933 19.24 24.2533 18.9867 24.5067 18.8C26.1733 17.64 28.92 18 29.2267 18.36C29.5467 18.76 29.1467 21.5067 27.5867 22.8133C27.3333 23.0133 27.1067 22.9067 27.2133 22.6667C27.5733 21.76 28.36 19.7867 28 19.3333Z" fill="#ACB1C3"/>
</g>
<defs>
<clipPath id="clip0_82_2438">
<rect width="32" height="32" fill="white"/>
</clipPath>
</defs>
</svg>
