<svg width="32" height="32" viewBox="0 0 32 32" fill="none" xmlns="http://www.w3.org/2000/svg">
<g clip-path="url(#clip0_82_2450)">
<g clip-path="url(#clip1_82_2450)">
<mask id="mask0_82_2450" style="mask-type:luminance" maskUnits="userSpaceOnUse" x="0" y="0" width="32" height="32">
<path d="M0 0H32V32H0V0Z" fill="white"/>
</mask>
<g mask="url(#mask0_82_2450)">
<path fill-rule="evenodd" clip-rule="evenodd" d="M30.652 2.54001C30.9065 2.84558 31.0292 3.23971 30.9932 3.63575C30.9572 4.0318 30.7654 4.39733 30.46 4.65201L23.112 10.776C22.4142 11.3577 21.5833 11.7574 20.6933 11.9396C19.8034 12.1218 18.8822 12.0807 18.012 11.82L12.274 10.1C11.8548 9.97417 11.4099 9.96059 10.9838 10.0606C10.5578 10.1606 10.1654 10.3708 9.846 10.67L3.526 16.594C3.38298 16.7321 3.21392 16.8405 3.02866 16.9127C2.84339 16.9849 2.64562 17.0196 2.44684 17.0147C2.24806 17.0097 2.05224 16.9654 1.87077 16.8841C1.68929 16.8028 1.52579 16.6863 1.38977 16.5412C1.25375 16.3962 1.14792 16.2256 1.07844 16.0392C1.00896 15.8529 0.977215 15.6547 0.985053 15.456C0.992891 15.2573 1.04015 15.0622 1.12409 14.8819C1.20803 14.7016 1.32697 14.5399 1.474 14.406L7.794 8.48001C8.49652 7.82129 9.35969 7.35858 10.2972 7.13817C11.2346 6.91775 12.2136 6.94735 13.136 7.22401L18.872 8.94401C19.676 9.18601 20.546 9.00801 21.192 8.47201L28.54 2.34801C28.8456 2.09351 29.2397 1.97077 29.6357 2.00677C30.0318 2.04278 30.3973 2.23458 30.652 2.54001ZM30.878 14.91C31.0343 15.2753 31.0394 15.6876 30.892 16.0566C30.7446 16.4255 30.4569 16.7209 30.092 16.878L21.296 20.648C20.5614 20.9628 19.7669 21.1137 18.968 21.0903C18.1691 21.0668 17.3849 20.8694 16.67 20.512L12.372 18.364C11.9831 18.1694 11.5502 18.0795 11.1159 18.1034C10.6817 18.1272 10.2612 18.2639 9.896 18.5L3.316 22.76C2.98183 22.9762 2.57548 23.0507 2.18634 22.9673C1.7972 22.8838 1.45715 22.6492 1.241 22.315C1.02485 21.9808 0.9503 21.5745 1.03375 21.1853C1.11721 20.7962 1.35183 20.4562 1.686 20.24L8.266 15.982C9.06953 15.4624 9.99472 15.1614 10.9502 15.1088C11.9056 15.0562 12.8583 15.2538 13.714 15.682L18.012 17.828C18.3368 17.9904 18.6932 18.0801 19.0562 18.0908C19.4192 18.1015 19.7802 18.033 20.114 17.89L28.91 14.122C29.2755 13.9658 29.688 13.9611 30.057 14.1088C30.426 14.2566 30.7213 14.5447 30.878 14.91ZM2.5 25C2.10218 25 1.72064 25.158 1.43934 25.4393C1.15804 25.7207 1 26.1022 1 26.5C1 26.8978 1.15804 27.2794 1.43934 27.5607C1.72064 27.842 2.10218 28 2.5 28H29.5C29.8978 28 30.2794 27.842 30.5607 27.5607C30.842 27.2794 31 26.8978 31 26.5C31 26.1022 30.842 25.7207 30.5607 25.4393C30.2794 25.158 29.8978 25 29.5 25H2.5Z" fill="#ACB1C3"/>
</g>
</g>
</g>
<defs>
<clipPath id="clip0_82_2450">
<rect width="32" height="32" fill="white"/>
</clipPath>
<clipPath id="clip1_82_2450">
<rect width="32" height="32" fill="white"/>
</clipPath>
</defs>
</svg>
