<svg width="17" height="16" viewBox="0 0 17 16" fill="none" xmlns="http://www.w3.org/2000/svg">
<path d="M1.96338 6.00016C1.96338 4.74283 1.96338 4.11483 2.35405 3.72416C2.74471 3.3335 3.37271 3.3335 4.63005 3.3335H12.63C13.8874 3.3335 14.5154 3.3335 14.906 3.72416C15.2967 4.11483 15.2967 4.74283 15.2967 6.00016C15.2967 6.31416 15.2967 6.4715 15.1994 6.5695C15.1014 6.66683 14.9434 6.66683 14.63 6.66683H2.63005C2.31605 6.66683 2.15871 6.66683 2.06071 6.5695C1.96338 6.4715 1.96338 6.3135 1.96338 6.00016ZM1.96338 12.0002C1.96338 13.2575 1.96338 13.8855 2.35405 14.2762C2.74471 14.6668 3.37271 14.6668 4.63005 14.6668H12.63C13.8874 14.6668 14.5154 14.6668 14.906 14.2762C15.2967 13.8855 15.2967 13.2575 15.2967 12.0002V8.66683C15.2967 8.35283 15.2967 8.1955 15.1994 8.0975C15.1014 8.00016 14.9434 8.00016 14.63 8.00016H2.63005C2.31605 8.00016 2.15871 8.00016 2.06071 8.0975C1.96338 8.1955 1.96338 8.3535 1.96338 8.66683V12.0002Z" fill="#ACB1C3"/>
<path d="M5.29675 2V4M11.9634 2V4" stroke="#ACB1C3" stroke-width="2" stroke-linecap="round"/>
</svg>
