<svg width="32" height="32" viewBox="0 0 32 32" fill="none" xmlns="http://www.w3.org/2000/svg">
<g clip-path="url(#clip0_82_2413)">
<path d="M4 6.66667V28H12V26H9.33333V24H12V22H6.66667V20H12V18H9.33333V16H12V14H6.66667V12H12V6.66667H14V12H16V9.33333H18V12H20V6.66667H22V12H24V9.33333H26V12H28V4H6.66667C5.95942 4 5.28115 4.28095 4.78105 4.78105C4.28095 5.28115 4 5.95942 4 6.66667ZM8 9.33333C7.64638 9.33333 7.30724 9.19286 7.05719 8.94281C6.80714 8.69276 6.66667 8.35362 6.66667 8C6.66667 7.64638 6.80714 7.30724 7.05719 7.05719C7.30724 6.80714 7.64638 6.66667 8 6.66667C8.35362 6.66667 8.69276 6.80714 8.94281 7.05719C9.19286 7.30724 9.33333 7.64638 9.33333 8C9.33333 8.35362 9.19286 8.69276 8.94281 8.94281C8.69276 9.19286 8.35362 9.33333 8 9.33333Z" fill="#ACB1C3"/>
</g>
<defs>
<clipPath id="clip0_82_2413">
<rect width="32" height="32" fill="white"/>
</clipPath>
</defs>
</svg>
