<svg width="32" height="33" viewBox="0 0 32 33" fill="none" xmlns="http://www.w3.org/2000/svg">
<g clip-path="url(#clip0_82_2163)">
<g clip-path="url(#clip1_82_2163)">
<path d="M24.3125 1.61743C24.146 1.62398 23.9836 1.67185 23.8402 1.75673C23.6967 1.84161 23.5767 1.96084 23.4908 2.10368C23.1805 2.65869 22.8583 3.20698 22.5245 3.74818C19.9138 8.05168 17.2568 7.56843 12.521 5.29518L5.94725 2.20143C5.41625 1.95893 4.83725 2.20143 4.59475 2.68468L1.454 9.79243C1.212 10.2767 1.454 10.9059 1.9375 11.1469C3.3385 11.7759 6.0935 13.0819 8.50875 14.2899C17.4505 18.5467 25.0375 18.3042 30.8355 8.87443H30.836C31.1809 8.33039 31.5194 7.78235 31.8515 7.23043C32.1415 6.74718 31.9958 6.11843 31.5128 5.82793L24.8915 1.76493C24.7172 1.65991 24.5158 1.60861 24.3125 1.61743ZM13.2935 16.9437C8.68025 17.0497 4.6065 19.4267 1.164 25.0257C0.818966 25.5697 0.480276 26.1178 0.148001 26.6697C-0.140999 27.1529 0.00375107 27.7817 0.486751 28.0722L7.108 32.1349C7.59125 32.4249 8.2185 32.2792 8.50875 31.7962C8.81956 31.2415 9.14171 30.6932 9.475 30.1517C12.0858 25.8482 14.7433 26.3314 19.479 28.6047L26.0523 31.6984C26.5833 31.9409 27.1638 31.6984 27.4048 31.2152L30.547 24.1077C30.7875 23.6234 30.5468 22.9954 30.062 22.7532C28.661 22.1242 25.9075 20.8182 23.4908 19.6102C19.8588 17.8614 16.45 16.8709 13.2935 16.9437Z" fill="#ACB1C3"/>
</g>
</g>
<defs>
<clipPath id="clip0_82_2163">
<rect width="32" height="32" fill="white" transform="translate(0 0.949951)"/>
</clipPath>
<clipPath id="clip1_82_2163">
<rect width="32" height="32" fill="white" transform="translate(0 0.949951)"/>
</clipPath>
</defs>
</svg>
