<svg width="32" height="32" viewBox="0 0 32 32" fill="none" xmlns="http://www.w3.org/2000/svg">
<g clip-path="url(#clip0_82_2542)">
<g clip-path="url(#clip1_82_2542)">
<path d="M15.9973 0.0266113C14.8453 0.0266113 13.7547 0.173278 13.1387 0.283945V0.286611C9.44821 0.938736 6.10651 2.87294 3.7028 5.74817C1.29909 8.6234 -0.0122516 12.255 1.16996e-06 16.0026C1.16996e-06 17.5039 0.209334 18.9799 0.620001 20.4066C0.670668 20.5999 0.741335 20.8053 0.802668 21.0026C2.94533 27.4893 9.10134 31.9706 15.992 31.9733C16.0787 31.9733 16.328 31.9733 16.6613 31.9586C17.2238 31.9331 17.7672 31.7476 18.228 31.4241C18.6888 31.1005 19.0477 30.6523 19.2627 30.1319L19.8947 28.5933L27.2347 10.7239H24.8267L21.7387 18.5519L18.6267 10.7239H16.0813L20.4467 21.4066L17.1987 29.2866C17.1472 29.4134 17.0606 29.5228 16.9492 29.6022C16.8377 29.6815 16.706 29.7274 16.5693 29.7346C16.3773 29.7413 16.1893 29.7479 15.9933 29.7479C9.88 29.7479 4.43733 25.6546 2.756 19.7946C2.40291 18.5616 2.22428 17.2852 2.22533 16.0026C2.21577 12.7493 3.36483 9.59886 5.46667 7.11565C7.56851 4.63243 10.4858 2.97867 13.696 2.45061C13.992 2.40128 14.8813 2.25728 15.996 2.25728C21.8853 2.25728 27.0213 5.89994 28.9693 11.3879C29.044 11.5799 29.1 11.7786 29.1653 11.9746C29.564 13.2733 29.7693 14.6253 29.7693 16.0026C29.7808 18.9535 28.8368 21.8289 27.0786 24.1989C25.3203 26.5688 22.8421 28.3059 20.0147 29.1506L20.6627 31.2839C27.4427 29.2226 31.996 23.0813 31.9987 16.0039C31.9987 13.9399 31.6013 12.1773 31.132 10.8146L30.9573 10.3306H30.9547C28.6093 4.12661 22.7253 0.0266113 15.9973 0.0266113ZM11.2453 10.5199C9.64534 10.5199 8.34534 11.0346 7.272 12.0879C6.20267 13.1359 5.664 14.4533 5.664 16.0026C5.664 17.5413 6.20667 18.8519 7.27067 19.8959C8.34534 20.9493 9.644 21.4613 11.244 21.4613C13.5187 21.4613 15.452 20.1879 16.2947 18.1426L16.3387 18.0333L14.1667 17.2946C13.9427 17.9026 13.16 19.2786 11.2453 19.2786C10.3453 19.2786 9.58667 18.9666 8.98667 18.3453C8.37733 17.7186 8.07067 16.9293 8.07067 16.0026C8.07067 15.0693 8.37067 14.2959 8.98667 13.6386C9.58933 13.0186 10.3467 12.7026 11.2453 12.7026C13.1627 12.7026 13.9427 14.1453 14.1693 14.6879L16.3387 13.9506L16.2947 13.8386C15.4547 11.7906 13.5187 10.5199 11.2453 10.5199Z" fill="#ACB1C3"/>
</g>
</g>
<defs>
<clipPath id="clip0_82_2542">
<rect width="32" height="32" fill="white"/>
</clipPath>
<clipPath id="clip1_82_2542">
<rect width="32" height="32" fill="white"/>
</clipPath>
</defs>
</svg>
