<svg width="32" height="32" viewBox="0 0 32 32" fill="none" xmlns="http://www.w3.org/2000/svg">
<g clip-path="url(#clip0_82_2454)">
<path d="M9 8C9.55228 8 10 7.55228 10 7C10 6.44772 9.55228 6 9 6C8.44772 6 8 6.44772 8 7C8 7.55228 8.44772 8 9 8Z" fill="#ACB1C3"/>
<path d="M27 22.14V18C27 17.4696 26.7893 16.9609 26.4142 16.5858C26.0391 16.2107 25.5304 16 25 16H17V12H26C26.5304 12 27.0391 11.7893 27.4142 11.4142C27.7893 11.0391 28 10.5304 28 10V4C28 3.46957 27.7893 2.96086 27.4142 2.58579C27.0391 2.21071 26.5304 2 26 2H6C5.46957 2 4.96086 2.21071 4.58578 2.58579C4.21071 2.96086 4 3.46957 4 4V10C4 10.5304 4.21071 11.0391 4.58578 11.4142C4.96086 11.7893 5.46957 12 6 12H15V16H7C6.46956 16 5.96086 16.2107 5.58578 16.5858C5.21071 16.9609 5 17.4696 5 18V22.14C4.05734 22.3834 3.23581 22.9622 2.6894 23.768C2.14298 24.5738 1.90921 25.5512 2.03188 26.517C2.15455 27.4828 2.62526 28.3707 3.35577 29.0143C4.08627 29.6579 5.02642 30.013 6 30.013C6.97357 30.013 7.91372 29.6579 8.64423 29.0143C9.37474 28.3707 9.84544 27.4828 9.96812 26.517C10.0908 25.5512 9.85701 24.5738 9.3106 23.768C8.76419 22.9622 7.94266 22.3834 7 22.14V18H15V22H12V30H20V22H17V18H25V22.14C24.0573 22.3834 23.2358 22.9622 22.6894 23.768C22.143 24.5738 21.9092 25.5512 22.0319 26.517C22.1546 27.4828 22.6253 28.3707 23.3558 29.0143C24.0863 29.6579 25.0264 30.013 26 30.013C26.9736 30.013 27.9137 29.6579 28.6442 29.0143C29.3747 28.3707 29.8454 27.4828 29.9681 26.517C30.0908 25.5512 29.857 24.5738 29.3106 23.768C28.7642 22.9622 27.9427 22.3834 27 22.14ZM8 26C8 26.3956 7.8827 26.7822 7.66294 27.1111C7.44317 27.44 7.13082 27.6964 6.76537 27.8478C6.39991 27.9991 5.99778 28.0387 5.60982 27.9616C5.22186 27.8844 4.86549 27.6939 4.58578 27.4142C4.30608 27.1345 4.1156 26.7781 4.03843 26.3902C3.96126 26.0022 4.00086 25.6001 4.15224 25.2346C4.30361 24.8692 4.55996 24.5568 4.88886 24.3371C5.21776 24.1173 5.60444 24 6 24C6.53043 24 7.03914 24.2107 7.41421 24.5858C7.78928 24.9609 8 25.4696 8 26ZM18 24V28H14V24H18ZM6 10V4H26V10H6ZM26 28C25.6044 28 25.2178 27.8827 24.8889 27.6629C24.56 27.4432 24.3036 27.1308 24.1522 26.7654C24.0009 26.3999 23.9613 25.9978 24.0384 25.6098C24.1156 25.2219 24.3061 24.8655 24.5858 24.5858C24.8655 24.3061 25.2219 24.1156 25.6098 24.0384C25.9978 23.9613 26.3999 24.0009 26.7654 24.1522C27.1308 24.3036 27.4432 24.56 27.6629 24.8889C27.8827 25.2178 28 25.6044 28 26C28 26.5304 27.7893 27.0391 27.4142 27.4142C27.0391 27.7893 26.5304 28 26 28Z" fill="#ACB1C3"/>
</g>
<defs>
<clipPath id="clip0_82_2454">
<rect width="32" height="32" fill="white"/>
</clipPath>
</defs>
</svg>
