<svg width="32" height="32" viewBox="0 0 32 32" fill="none" xmlns="http://www.w3.org/2000/svg">
<g clip-path="url(#clip0_82_2530)">
<path d="M29.08 13.6667C29 13.6133 28.3333 13.0933 26.8933 13.0933C26.52 13.0933 26.1467 13.1333 25.7733 13.2C25.4933 11.3333 23.9333 10.3867 23.8667 10.3467L23.48 10.12L23.24 10.48C22.92 10.96 22.6667 11.5067 22.56 12.0667C22.2933 13.1333 22.4533 14.1467 23 15.0133C22.3467 15.3867 21.28 15.48 21.0533 15.48H3.49333C3.04 15.48 2.66667 15.8533 2.66667 16.32C2.66667 17.8533 2.90667 19.3867 3.44 20.8267C4.04 22.4133 4.94667 23.5867 6.10667 24.3067C7.41333 25.1067 9.56 25.56 12 25.56C13.0533 25.56 14.1467 25.4667 15.2267 25.2667C16.72 25 18.16 24.48 19.48 23.72C20.5732 23.0949 21.5517 22.2877 22.3733 21.3333C23.7733 19.7733 24.6 18 25.2 16.4667H25.4533C26.9733 16.4667 27.92 15.8533 28.44 15.3333C28.7867 15.0133 29.04 14.6267 29.2267 14.1733L29.3333 13.8533L29.08 13.6667ZM5.13333 14.9867H7.48C7.58667 14.9867 7.69333 14.8933 7.69333 14.7733V12.6667C7.69333 12.56 7.6 12.4533 7.48 12.4533H5.13333C5.01333 12.4533 4.92 12.5467 4.92 12.6667V14.7733C4.93333 14.8933 5.01333 14.9867 5.13333 14.9867ZM8.37333 14.9867H10.72C10.8267 14.9867 10.9333 14.8933 10.9333 14.7733V12.6667C10.9333 12.56 10.84 12.4533 10.72 12.4533H8.37333C8.25333 12.4533 8.16 12.5467 8.16 12.6667V14.7733C8.17333 14.8933 8.25333 14.9867 8.37333 14.9867ZM11.6667 14.9867H14C14.1333 14.9867 14.2267 14.8933 14.2267 14.7733V12.6667C14.2267 12.56 14.1467 12.4533 14 12.4533H11.6667C11.56 12.4533 11.4667 12.5467 11.4667 12.6667V14.7733C11.4667 14.8933 11.5467 14.9867 11.6667 14.9867ZM14.92 14.9867H17.28C17.3867 14.9867 17.48 14.8933 17.48 14.7733V12.6667C17.48 12.56 17.4 12.4533 17.28 12.4533H14.92C14.8133 12.4533 14.72 12.5467 14.72 12.6667V14.7733C14.72 14.8933 14.8133 14.9867 14.92 14.9867ZM8.37333 12H10.72C10.8267 12 10.9333 11.88 10.9333 11.76V9.66667C10.9333 9.54667 10.84 9.45334 10.72 9.45334H8.37333C8.25333 9.45334 8.16 9.53334 8.16 9.66667V11.76C8.17333 11.88 8.25333 12 8.37333 12ZM11.6667 12H14C14.1333 12 14.2267 11.88 14.2267 11.76V9.66667C14.2267 9.54667 14.1467 9.45334 14 9.45334H11.6667C11.56 9.45334 11.4667 9.53334 11.4667 9.66667V11.76C11.4667 11.88 11.5467 12 11.6667 12ZM14.92 12H17.28C17.3867 12 17.48 11.88 17.48 11.76V9.66667C17.48 9.54667 17.3867 9.45334 17.28 9.45334H14.92C14.8133 9.45334 14.72 9.53334 14.72 9.66667V11.76C14.72 11.88 14.8133 12 14.92 12ZM14.92 8.96H17.28C17.3867 8.96 17.48 8.86667 17.48 8.74667V6.66667C17.48 6.53334 17.3867 6.44 17.28 6.44H14.92C14.8133 6.44 14.72 6.52 14.72 6.66667V8.74667C14.72 8.85334 14.8133 8.96 14.92 8.96ZM18.2 14.9867H20.5467C20.6667 14.9867 20.76 14.8933 20.76 14.7733V12.6667C20.76 12.56 20.6667 12.4533 20.5467 12.4533H18.2C18.0933 12.4533 18 12.5467 18 12.6667V14.7733C18 14.8933 18.0933 14.9867 18.2 14.9867Z" fill="#ACB1C3"/>
</g>
<defs>
<clipPath id="clip0_82_2530">
<rect width="32" height="32" fill="white"/>
</clipPath>
</defs>
</svg>
