<svg width="32" height="32" viewBox="0 0 32 32" fill="none" xmlns="http://www.w3.org/2000/svg">
<g clip-path="url(#clip0_82_2510)">
<path d="M1 16C1 17.3838 1.19425 18.7197 1.5245 20H21C23.209 20 25 18.209 25 16C25 13.791 23.209 12 21 12H1.5245C1.18081 13.3057 1.00456 14.6498 1 16ZM27.9237 7.662C28.483 7.14724 29.0034 6.59172 29.4805 6C26.547 2.34475 22.0497 0 17 0C10.6788 0 5.23925 3.6775 2.6435 9H24.51C25.7755 8.99921 26.9941 8.52145 27.923 7.662M24.51 23H2.645C5.24 28.3225 10.6785 32 17 32C22.05 32 26.547 29.6542 29.4805 26C29.0037 25.408 28.4834 24.8524 27.9237 24.338C26.9946 23.4786 25.7757 23.0008 24.51 23Z" fill="#ACB1C3"/>
</g>
<defs>
<clipPath id="clip0_82_2510">
<rect width="32" height="32" fill="white"/>
</clipPath>
</defs>
</svg>
