<svg width="32" height="32" viewBox="0 0 32 32" fill="none" xmlns="http://www.w3.org/2000/svg">
<g clip-path="url(#clip0_82_2514)">
<path d="M27.324 8.96668C27.6653 8.52134 28.1933 8.26001 28.7547 8.26001H29.208L23.352 15.9173L29.3333 23.7373H28.88C28.6033 23.7375 28.3302 23.6738 28.0821 23.5512C27.834 23.4286 27.6174 23.2505 27.4493 23.0307L22.6813 16.796L17.912 23.0307C17.744 23.2503 17.5277 23.4284 17.2799 23.5509C17.032 23.6735 16.7592 23.7373 16.4827 23.7373H16.0293L22.0093 15.9173L16.1547 8.26001H16.608C17.168 8.26001 17.6973 8.52134 18.0373 8.96668L22.68 15.0387L27.324 8.96668Z" fill="#ACB1C3"/>
<path fill-rule="evenodd" clip-rule="evenodd" d="M7.41734 22.8613C9.98267 23.7973 12.6653 22.736 14.0293 20.6653C14.296 20.2587 14.736 20.0013 15.224 20.0013H15.564C14.3107 23.2507 10.604 25.1427 7.08 23.8747C4.38267 22.904 2.66667 20.2387 2.66667 17.372V14.4C2.66784 13.47 2.86321 12.5504 3.24026 11.7003C3.61732 10.8501 4.16774 10.088 4.85631 9.46284C5.54487 8.83767 6.35639 8.36316 7.23891 8.0697C8.12143 7.77625 9.05551 7.67031 9.98133 7.75867C13.4387 8.08267 16.0093 11.1227 16.0093 14.5947V16.8H3.73467V17.392C3.73467 19.7947 5.16 22.0387 7.41734 22.8613ZM9.33733 8.79467C7.85228 8.79749 6.42886 9.38868 5.37877 10.4388C4.32867 11.4889 3.73749 12.9123 3.73467 14.3973V15.7333H14.9427V14.4C14.9406 12.9143 14.3495 11.49 13.299 10.4392C12.2486 9.38854 10.8244 8.79714 9.33867 8.79467" fill="#ACB1C3"/>
</g>
<defs>
<clipPath id="clip0_82_2514">
<rect width="32" height="32" fill="white"/>
</clipPath>
</defs>
</svg>
