<svg width="32" height="33" viewBox="0 0 32 33" fill="none" xmlns="http://www.w3.org/2000/svg">
<g clip-path="url(#clip0_774_6923)">
<path d="M16.2257 0.950157C15.9699 0.954362 15.726 1.05913 15.5468 1.24179C15.3677 1.42444 15.2676 1.6703 15.2684 1.92616V20.4782C15.268 20.6064 15.293 20.7335 15.3419 20.8521C15.3909 20.9706 15.4627 21.0784 15.5534 21.1691C15.6441 21.2598 15.7519 21.3317 15.8705 21.3806C15.989 21.4295 16.1161 21.4545 16.2444 21.4542C16.3726 21.4545 16.4997 21.4295 16.6183 21.3806C16.7369 21.3317 16.8446 21.2598 16.9353 21.1691C17.026 21.0784 17.0979 20.9706 17.1468 20.8521C17.1957 20.7335 17.2207 20.6064 17.2204 20.4782V1.92616C17.2208 1.79641 17.1952 1.6679 17.1452 1.54818C17.0952 1.42845 17.0218 1.31994 16.9292 1.229C16.8367 1.13807 16.7269 1.06656 16.6063 1.01867C16.4857 0.970785 16.3554 0.94749 16.2257 0.950157ZM30.9937 6.50749C30.8661 6.50995 30.7404 6.53854 30.6244 6.59149L22.2484 10.3302C22.077 10.4076 21.9316 10.5328 21.8296 10.6908C21.7276 10.8487 21.6734 11.0328 21.6734 11.2208C21.6734 11.4089 21.7276 11.5929 21.8296 11.7509C21.9316 11.9089 22.077 12.0341 22.2484 12.1115L30.6244 15.8635C30.7498 15.9212 30.8864 15.9503 31.0244 15.9488C31.2475 15.9481 31.4637 15.871 31.6368 15.7302C31.81 15.5895 31.9297 15.3937 31.976 15.1754C32.0223 14.9571 31.9924 14.7295 31.8913 14.5306C31.7902 14.3317 31.624 14.1734 31.4204 14.0822L25.039 11.2222L31.4204 8.37282C31.656 8.26674 31.8401 8.07179 31.9325 7.8305C32.0249 7.58921 32.0182 7.32116 31.9137 7.08482C31.8351 6.90806 31.7056 6.75873 31.5417 6.6559C31.3779 6.55307 31.1871 6.5014 30.9937 6.50749ZM0.9937 13.2168C0.843261 13.2141 0.694229 13.2462 0.558245 13.3106C0.422261 13.375 0.303009 13.47 0.209804 13.5881C0.1166 13.7062 0.0519671 13.8443 0.0209554 13.9915C-0.0100563 14.1387 -0.00660709 14.2911 0.0310335 14.4368C2.3457 23.3395 10.3977 29.5582 19.6084 29.5582C19.8672 29.5582 20.1155 29.4553 20.2985 29.2723C20.4815 29.0893 20.5844 28.841 20.5844 28.5822C20.5844 28.3233 20.4815 28.0751 20.2985 27.892C20.1155 27.709 19.8672 27.6062 19.6084 27.6062C15.5641 27.6078 11.6335 26.2678 8.43242 23.7961C5.23133 21.3244 2.94058 17.8606 1.91903 13.9475C1.86572 13.7415 1.74637 13.5586 1.57925 13.4269C1.41214 13.2952 1.20646 13.2205 0.9937 13.2168Z" fill="#ACB1C3"/>
</g>
<defs>
<clipPath id="clip0_774_6923">
<rect width="32" height="32" fill="white" transform="translate(0 0.949951)"/>
</clipPath>
</defs>
</svg>
