<svg width="32" height="32" viewBox="0 0 32 32" fill="none" xmlns="http://www.w3.org/2000/svg">
<g clip-path="url(#clip0_82_2200)">
<g clip-path="url(#clip1_82_2200)">
<path d="M16 13.3333C16.5304 13.3333 17.0391 13.1225 17.4142 12.7475C17.7893 12.3724 18 11.8637 18 11.3333C18 10.8028 17.7893 10.2941 17.4142 9.91904C17.0391 9.54397 16.5304 9.33325 16 9.33325C15.4696 9.33325 14.9609 9.54397 14.5858 9.91904C14.2107 10.2941 14 10.8028 14 11.3333C14 11.8637 14.2107 12.3724 14.5858 12.7475C14.9609 13.1225 15.4696 13.3333 16 13.3333ZM16 13.3333V19.9999M16 19.9999C16.5304 19.9999 17.0391 20.2106 17.4142 20.5857C17.7893 20.9608 18 21.4695 18 21.9999C18 22.5304 17.7893 23.0391 17.4142 23.4141C17.0391 23.7892 16.5304 23.9999 16 23.9999C15.4696 23.9999 14.9609 23.7892 14.5858 23.4141C14.2107 23.0391 14 22.5304 14 21.9999C14 21.4695 14.2107 20.9608 14.5858 20.5857C14.9609 20.2106 15.4696 19.9999 16 19.9999ZM11 6.33325L14 9.33325M17.6667 12.9999L19.6667 14.9999M21.6667 18.9999C22.1971 18.9999 22.7058 18.7892 23.0809 18.4141C23.456 18.0391 23.6667 17.5304 23.6667 16.9999C23.6667 16.4695 23.456 15.9608 23.0809 15.5857C22.7058 15.2106 22.1971 14.9999 21.6667 14.9999C21.1362 14.9999 20.6275 15.2106 20.2525 15.5857C19.8774 15.9608 19.6667 16.4695 19.6667 16.9999C19.6667 17.5304 19.8774 18.0391 20.2525 18.4141C20.6275 18.7892 21.1362 18.9999 21.6667 18.9999Z" stroke="#ACB1C3" stroke-width="2" stroke-linecap="round" stroke-linejoin="round"/>
<path d="M15.4347 1.89864C15.5847 1.74882 15.788 1.66467 16 1.66467C16.212 1.66467 16.4153 1.74882 16.5653 1.89864L30.1013 15.4346C30.2511 15.5846 30.3353 15.788 30.3353 16C30.3353 16.212 30.2511 16.4153 30.1013 16.5653L16.5653 30.1013C16.4153 30.2511 16.212 30.3353 16 30.3353C15.788 30.3353 15.5847 30.2511 15.4347 30.1013L1.89867 16.5653C1.74885 16.4153 1.6647 16.212 1.6647 16C1.6647 15.788 1.74885 15.5846 1.89867 15.4346L15.4347 1.89864Z" stroke="#ACB1C3" stroke-width="2" stroke-linecap="round" stroke-linejoin="round"/>
</g>
</g>
<defs>
<clipPath id="clip0_82_2200">
<rect width="32" height="32" fill="white"/>
</clipPath>
<clipPath id="clip1_82_2200">
<rect width="32" height="32" fill="white"/>
</clipPath>
</defs>
</svg>
