<svg width="32" height="32" viewBox="0 0 32 32" fill="none" xmlns="http://www.w3.org/2000/svg">
<g clip-path="url(#clip0_82_2422)">
<g clip-path="url(#clip1_82_2422)">
<path d="M14.7601 13.2499H17.2384L17.854 12.4024V5.76275H14.1447V12.4028L14.7601 13.2499ZM13.1625 16.2114L13.9282 13.8546L13.3124 13.0069L6.99779 10.9551L5.85148 14.4831L12.167 16.5351L13.1625 16.2114ZM15.4853 18.6456L13.4805 17.1889L12.484 17.5133L8.58142 22.8848L11.5823 25.0648L15.4853 19.6931V18.6456ZM18.5185 17.1889L16.5134 18.6456V19.6931L20.4161 25.0648L23.4174 22.8848L19.514 17.5127L18.5185 17.1889ZM18.0698 13.8539L18.8359 16.2113L19.8323 16.5344L26.1469 14.4831L25.0007 10.9551L18.6857 13.0072L18.0698 13.8539ZM25.6903 19.5534L20.89 17.9934L21.2077 17.0156L26.0076 18.5756L25.6903 19.5534ZM19.5682 11.847L18.7365 11.2428L21.7029 7.15913L22.5349 7.76325L19.5682 11.847ZM12.4817 11.8095L9.5156 7.72613L10.3476 7.12175L13.3137 11.2054L12.4817 11.8095ZM6.28854 19.4921L5.97104 18.5144L10.7709 16.9553L11.0882 17.933L6.28854 19.4921ZM15.4535 26.1976H16.4815V21.1504H15.4536L15.4535 26.1976ZM7.98217 29.8467C-2.6604 23.7111 -2.6604 8.28888 7.98217 2.15331C18.6247 -3.98225 32.0002 3.72888 32.0002 16C32.0002 28.2711 18.6248 35.9823 7.98217 29.8467ZM28.7597 16C28.7597 6.21413 18.0932 0.0647511 9.60604 4.95769C1.11885 9.85063 1.11892 22.1494 9.60604 27.0423C18.0932 31.9353 28.7598 25.7859 28.7598 16" fill="#ACB1C3"/>
</g>
</g>
<defs>
<clipPath id="clip0_82_2422">
<rect width="32" height="32" fill="white"/>
</clipPath>
<clipPath id="clip1_82_2422">
<rect width="32" height="32" fill="white"/>
</clipPath>
</defs>
</svg>
