<svg width="32" height="33" viewBox="0 0 32 33" fill="none" xmlns="http://www.w3.org/2000/svg">
<g clip-path="url(#clip0_80_1997)">
<path d="M0 4.44995C0 2.51795 1.568 0.949951 3.5 0.949951H28.5C30.432 0.949951 32 2.51795 32 4.44995V8.44995C32 8.84778 31.842 9.22931 31.5607 9.51061C31.2794 9.79192 30.8978 9.94995 30.5 9.94995C30.1022 9.94995 29.7206 9.79192 29.4393 9.51061C29.158 9.22931 29 8.84778 29 8.44995V4.44995C29 4.31734 28.9473 4.19017 28.8536 4.0964C28.7598 4.00263 28.6326 3.94995 28.5 3.94995H3.5C3.36739 3.94995 3.24021 4.00263 3.14645 4.0964C3.05268 4.19017 3 4.31734 3 4.44995V29.45C3 29.726 3.224 29.95 3.5 29.95H30.5C30.8978 29.95 31.2794 30.108 31.5607 30.3893C31.842 30.6706 32 31.0521 32 31.45C32 31.8478 31.842 32.2293 31.5607 32.5106C31.2794 32.7919 30.8978 32.95 30.5 32.95H3.5C2.57174 32.95 1.6815 32.5812 1.02513 31.9248C0.368749 31.2684 0 30.3782 0 29.45L0 4.44995ZM16.5 12.45C16.8978 12.45 17.2794 12.608 17.5607 12.8893C17.842 13.1706 18 13.5521 18 13.95V21.95C18 23.96 17.448 25.466 16.31 26.414C15.224 27.32 13.908 27.45 13 27.45C12.6022 27.45 12.2206 27.2919 11.9393 27.0106C11.658 26.7293 11.5 26.3478 11.5 25.95C11.5 25.5521 11.658 25.1706 11.9393 24.8893C12.2206 24.608 12.6022 24.45 13 24.45C13.692 24.45 14.126 24.33 14.39 24.11C14.602 23.934 15 23.44 15 21.95V13.95C15 13.5521 15.158 13.1706 15.4393 12.8893C15.7206 12.608 16.1022 12.45 16.5 12.45ZM22.552 14.11C23.388 13.114 24.702 12.45 26.5 12.45C28.17 12.45 29.43 13.022 30.28 13.92C30.5434 14.2107 30.6824 14.5932 30.6672 14.9852C30.6519 15.3773 30.4837 15.7477 30.1985 16.0172C29.9133 16.2867 29.5339 16.4337 29.1417 16.4267C28.7494 16.4198 28.3754 16.2594 28.1 15.98C27.88 15.748 27.44 15.45 26.5 15.45C25.5 15.45 25.06 15.786 24.848 16.04C24.6366 16.2976 24.5145 16.617 24.5 16.95C24.5 17.158 24.586 17.55 24.848 17.86C25.062 18.114 25.498 18.45 26.5 18.45C26.652 18.45 26.7973 18.4713 26.936 18.514C28.262 18.702 29.264 19.294 29.948 20.11C30.736 21.05 31 22.158 31 22.95C31 23.742 30.736 24.85 29.948 25.79C29.112 26.786 27.798 27.45 26 27.45C24.33 27.45 23.07 26.878 22.22 25.98C21.9566 25.6892 21.8176 25.3067 21.8328 24.9147C21.8481 24.5226 22.0163 24.1522 22.3015 23.8827C22.5867 23.6132 22.9661 23.4662 23.3583 23.4732C23.7506 23.4801 24.1246 23.6405 24.4 23.92C24.62 24.152 25.06 24.45 26 24.45C27 24.45 27.44 24.114 27.652 23.86C27.8634 23.6023 27.9855 23.283 28 22.95C28 22.742 27.914 22.35 27.652 22.04C27.438 21.786 27.002 21.45 26 21.45C25.8524 21.4488 25.7057 21.4273 25.564 21.386C24.238 21.196 23.236 20.606 22.552 19.79C21.8852 18.9924 21.5136 17.9894 21.5 16.95C21.5 16.158 21.764 15.05 22.552 14.11Z" fill="#ACB1C3"/>
</g>
<defs>
<clipPath id="clip0_80_1997">
<rect width="32" height="32" fill="white" transform="translate(0 0.949951)"/>
</clipPath>
</defs>
</svg>
