<svg width="29" height="32" viewBox="0 0 29 32" fill="none" xmlns="http://www.w3.org/2000/svg">
<g clip-path="url(#clip0_82_2426)">
<g clip-path="url(#clip1_82_2426)">
<path d="M15.1511 11.7321L11.1754 0H28.0658L24.0764 11.7662C23.9048 11.8072 23.736 11.8595 23.5713 11.9228L19.6303 3.88331L15.6779 11.8752C15.5058 11.8155 15.3297 11.7677 15.1511 11.7321ZM2.16188 30.9371C7.47444 34.6686 13.3671 27.4481 21.3938 26.5384C26.0031 26.2653 29.1361 23.4436 27.351 19.0754C24.0319 21.1197 20.93 18.4408 20.9517 15.7527H18.4296C18.3468 18.1526 16.5416 20.0408 13.7434 19.7601C11.5532 23.0366 9.01469 24.8776 6.13432 25.8133C4.1875 24.9149 2.35544 22.7264 3.18607 19.8034C2.82463 19.7631 2.47029 19.6741 2.13263 19.539C-0.544996 24.5389 -0.875871 28.4904 2.16188 30.9371ZM6.11694 15.7531C6.11694 13.854 4.047 12.6607 2.40007 13.6102C0.753129 14.5597 0.753004 16.9464 2.40007 17.8959C4.047 18.8454 6.11694 17.6521 6.11694 15.7531ZM16.8299 15.7295C16.8299 13.8305 14.7599 12.6371 13.113 13.5867C11.4661 14.5362 11.466 16.9229 13.113 17.8723C14.76 18.8219 16.8299 17.6286 16.8299 15.7295M27.5026 15.7295C27.5026 13.8305 25.4326 12.6371 23.7857 13.5867C22.1388 14.5362 22.1387 16.9229 23.7857 17.8723C25.4327 18.8219 27.5026 17.6286 27.5026 15.7295" fill="#ACB1C3"/>
</g>
</g>
<defs>
<clipPath id="clip0_82_2426">
<rect width="28.13" height="32" fill="white"/>
</clipPath>
<clipPath id="clip1_82_2426">
<rect width="28.13" height="32" fill="white"/>
</clipPath>
</defs>
</svg>
