<svg width="24" height="25" viewBox="0 0 24 25" fill="none" xmlns="http://www.w3.org/2000/svg">
<g clip-path="url(#clip0_141_17293)">
<path d="M8.465 21.485C6.44284 21.485 4.61978 20.2669 3.8458 18.3987C3.07183 16.5305 3.49933 14.3801 4.929 12.95L7.051 10.828L8.465 12.242L6.344 14.363C5.58606 15.1209 5.29005 16.2256 5.56748 17.261C5.8449 18.2964 6.65362 19.1051 7.68898 19.3825C8.72434 19.6599 9.82906 19.3639 10.587 18.606L12.708 16.485L14.122 17.9L12.001 20.021C11.0651 20.9615 9.79186 21.4887 8.465 21.485ZM9.172 17.192L7.758 15.778L14.829 8.70697L16.243 10.121L9.173 17.191L9.172 17.192ZM16.951 15.071L15.536 13.657L17.657 11.536C18.4253 10.7803 18.7292 9.67064 18.4532 8.62895C18.1773 7.58727 17.3638 6.77362 16.3222 6.49742C15.2806 6.22121 14.1709 6.52489 13.415 7.29297L11.293 9.41397L9.879 7.99997L12.001 5.87797C13.9561 3.93994 17.11 3.94684 19.0566 5.89342C21.0031 7.84 21.01 10.9939 19.072 12.949L16.951 15.07V15.071Z" fill="#E2E6EE"/>
</g>
<defs>
<clipPath id="clip0_141_17293">
<rect width="24" height="24" fill="white" transform="translate(0 0.949951)"/>
</clipPath>
</defs>
</svg>
