<svg width="24" height="25" viewBox="0 0 24 25" fill="none" xmlns="http://www.w3.org/2000/svg">
<g clip-path="url(#clip0_140_17237)">
<path d="M13.3333 24.9499H7.99998V8.94993H13.3333V11.6166C14.4701 10.1703 16.1941 9.30803 18.0333 9.26593C21.3407 9.2843 24.0096 11.9758 24 15.2833V24.9499H18.6666V15.9499C18.4533 14.4601 17.1756 13.3547 15.6706 13.3579C15.0123 13.3787 14.391 13.667 13.9499 14.1561C13.5088 14.6452 13.2862 15.293 13.3333 15.9499V24.9499ZM5.33332 24.9499H0V8.94993H5.33332V24.9499ZM2.66666 6.28327C1.1939 6.28327 0 5.08937 0 3.61661C0 2.14386 1.1939 0.949951 2.66666 0.949951C4.13942 0.949951 5.33332 2.14386 5.33332 3.61661C5.33332 4.32385 5.05237 5.00213 4.55228 5.50223C4.05218 6.00232 3.3739 6.28327 2.66666 6.28327Z" fill="white"/>
</g>
<defs>
<clipPath id="clip0_140_17237">
<rect width="24" height="23.9999" fill="white" transform="translate(0 0.949951)"/>
</clipPath>
</defs>
</svg>
