<svg width="24" height="25" viewBox="0 0 24 25" fill="none" xmlns="http://www.w3.org/2000/svg">
<g clip-path="url(#clip0_132_14481)">
<path d="M12 21.95C10.7369 20.8726 9.56618 19.6915 8.5 18.419C6.9 16.508 5 13.662 5 10.95C4.99858 8.11755 6.70424 5.56339 9.32107 4.4794C11.9379 3.39541 14.9501 3.99524 16.952 5.999C18.2685 7.30961 19.0059 9.09239 19 10.95C19 13.662 17.1 16.508 15.5 18.419C14.4338 19.6915 13.2631 20.8726 12 21.95ZM12 7.95C10.9282 7.95 9.93782 8.5218 9.40192 9.45C8.86602 10.3782 8.86602 11.5218 9.40192 12.45C9.93782 13.3782 10.9282 13.95 12 13.95C13.6569 13.95 15 12.6069 15 10.95C15 9.29315 13.6569 7.95 12 7.95Z" fill="#E2E6EE"/>
</g>
<defs>
<clipPath id="clip0_132_14481">
<rect width="24" height="24" fill="white" transform="translate(0 0.949951)"/>
</clipPath>
</defs>
</svg>
