<svg width="32" height="23" viewBox="0 0 32 23" fill="none" xmlns="http://www.w3.org/2000/svg">
<g clip-path="url(#clip0_774_6567)">
<path d="M9.6 0.949951C12.1461 0.949951 14.5879 2.10888 16.3882 4.17178C18.1886 6.23468 19.2 9.03257 19.2 11.95C19.2 14.8673 18.1886 17.6652 16.3882 19.7281C14.5879 21.791 12.1461 22.95 9.6 22.95C7.05392 22.95 4.61212 21.791 2.81177 19.7281C1.01143 17.6652 0 14.8673 0 11.95C0 9.03257 1.01143 6.23468 2.81177 4.17178C4.61212 2.10888 7.05392 0.949951 9.6 0.949951ZM24 2.78328C26.4 2.78328 28 6.88812 28 11.95C28 17.0118 26.4 21.1166 24 21.1166C21.6 21.1166 20 17.0118 20 11.95C20 6.88812 21.6 2.78328 24 2.78328ZM30.4 3.69995C31.008 3.69995 31.5392 5.21612 31.808 7.81762L31.8832 8.62978L31.9136 9.06062L31.9616 9.96629L31.9776 10.4411L31.9968 11.433L32 11.95L31.9968 12.467L31.9776 13.4588L31.9616 13.9355L31.9136 14.8393L31.8816 15.2701L31.8096 16.0823C31.5392 18.6856 31.0096 20.2 30.4 20.2C29.792 20.2 29.2608 18.6838 28.992 16.0823L28.9168 15.2701L28.8864 14.8393L28.8384 13.9336L28.8224 13.4588L28.8032 12.467V11.433L28.8224 10.4411L28.8384 9.96445L28.8864 9.06062L28.9184 8.62978L28.9904 7.81762C29.2608 5.21429 29.7904 3.69995 30.4 3.69995Z" fill="#ACB1C3"/>
</g>
<defs>
<clipPath id="clip0_774_6567">
<rect width="32" height="22" fill="white" transform="translate(0 0.949951)"/>
</clipPath>
</defs>
</svg>
