<svg width="32" height="32" viewBox="0 0 32 32" fill="none" xmlns="http://www.w3.org/2000/svg">
<g clip-path="url(#clip0_82_2320)">
<g clip-path="url(#clip1_82_2320)">
<path d="M18.372 9.59397C19.2704 9.42747 20.1033 9.01008 20.7745 8.39004C21.4456 7.77001 21.9275 6.97267 22.1645 6.09024C22.4014 5.2078 22.3838 4.27631 22.1135 3.40349C21.8433 2.53067 21.3315 1.75217 20.6373 1.15802C19.9432 0.56387 19.0951 0.178343 18.191 0.0460209C17.2869 -0.0863012 16.3639 0.039987 15.5286 0.410281C14.6933 0.780575 13.9798 1.37975 13.4708 2.13851C12.9617 2.89728 12.6779 3.78463 12.652 4.69797H15.008C16.866 4.69797 18.372 6.20397 18.372 8.06197V9.59397ZM9.782 25.07H15.008C16.866 25.07 18.372 23.564 18.372 21.706V11.16H23.938C24.3086 11.1694 24.6604 11.3255 24.9161 11.5939C25.1718 11.8624 25.3106 12.2213 25.302 12.592V21.18C25.3535 23.4037 24.5204 25.5569 22.9855 27.1667C21.4507 28.7766 19.3396 29.7114 17.116 29.766C13.88 29.686 11.116 27.786 9.782 25.066V25.07ZM31.256 6.32597C31.256 6.76576 31.1694 7.20125 31.0011 7.60757C30.8328 8.01389 30.5861 8.38308 30.2751 8.69407C29.9641 9.00505 29.5949 9.25174 29.1886 9.42004C28.7823 9.58834 28.3468 9.67497 27.907 9.67497C27.4672 9.67497 27.0317 9.58834 26.6254 9.42004C26.2191 9.25174 25.8499 9.00505 25.5389 8.69407C25.2279 8.38308 24.9812 8.01389 24.8129 7.60757C24.6446 7.20125 24.558 6.76576 24.558 6.32597C24.558 5.43776 24.9108 4.58593 25.5389 3.95787C26.167 3.32981 27.0188 2.97697 27.907 2.97697C28.7952 2.97697 29.647 3.32981 30.2751 3.95787C30.9032 4.58593 31.256 5.43776 31.256 6.32597ZM26.78 25.302L26.54 25.298C27.0736 23.9843 27.3329 22.5755 27.302 21.158V12.612C27.3097 12.1125 27.2073 11.6174 27.002 11.162H30.586C31.366 11.162 32 11.796 32 12.576V20.106C31.9989 21.4837 31.4512 22.8047 30.477 23.7789C29.5027 24.7531 28.1817 25.3009 26.804 25.302H26.78Z" fill="#ACB1C3"/>
<path d="M1.364 6.69792H15.008C15.762 6.69792 16.372 7.30792 16.372 8.06192V21.7059C16.3725 21.8852 16.3376 22.0628 16.2692 22.2285C16.2009 22.3943 16.1004 22.5448 15.9737 22.6716C15.8469 22.7984 15.6963 22.8988 15.5306 22.9672C15.3649 23.0355 15.1873 23.0705 15.008 23.0699H1.364C1.18473 23.0705 1.00712 23.0355 0.841394 22.9672C0.675667 22.8988 0.525092 22.7984 0.398327 22.6716C0.271563 22.5448 0.171111 22.3943 0.102751 22.2285C0.0343907 22.0628 -0.000529777 21.8852 -1.72914e-06 21.7059V8.05992C-1.72914e-06 7.30592 0.609998 6.69792 1.364 6.69792ZM11.776 11.8899V10.4499H4.596V11.8899H7.31V19.3199H9.05V11.8899H11.776Z" fill="#ACB1C3"/>
</g>
</g>
<defs>
<clipPath id="clip0_82_2320">
<rect width="32" height="32" fill="white"/>
</clipPath>
<clipPath id="clip1_82_2320">
<rect width="32" height="32" fill="white"/>
</clipPath>
</defs>
</svg>
