<svg width="32" height="32" viewBox="0 0 32 32" fill="none" xmlns="http://www.w3.org/2000/svg">
<g clip-path="url(#clip0_82_2442)">
<path d="M17.8553 27.2094L9.84867 19.4301H17.8887L20.072 25.8047C20.532 27.1474 18.8733 28.1981 17.8553 27.2094Z" stroke="#ACB1C3" stroke-width="1.67" stroke-linecap="round" stroke-linejoin="round"/>
<path d="M13.0793 22.57L11.6207 26.8194C11.5475 27.0317 11.4099 27.216 11.2271 27.3464C11.0442 27.4769 10.8253 27.5472 10.6007 27.5474H4.81733C4.63445 27.5473 4.45422 27.5035 4.29163 27.4198C4.12904 27.3361 3.98879 27.2147 3.88252 27.0659C3.77624 26.917 3.70703 26.745 3.68062 26.564C3.65421 26.383 3.67137 26.1984 3.73067 26.0254L10.8773 5.16204C11.2233 4.15204 12.6513 4.15204 12.9973 5.16204L16.0187 13.982M16.0187 13.982L14.1487 19.43M16.0187 13.982L17.8887 19.43" stroke="#ACB1C3" stroke-width="1.67" stroke-linecap="round" stroke-linejoin="round"/>
<path d="M11.938 4.40137H20.19C20.6147 4.40137 20.992 4.67137 21.13 5.0727L28.2627 25.886C28.3296 26.0808 28.349 26.2888 28.3192 26.4926C28.2895 26.6965 28.2115 26.8902 28.0918 27.0578C27.9721 27.2254 27.814 27.362 27.6309 27.4562C27.4477 27.5504 27.2446 27.5995 27.0387 27.5994H18.7853" stroke="#ACB1C3" stroke-width="1.67" stroke-linecap="round" stroke-linejoin="round"/>
</g>
<defs>
<clipPath id="clip0_82_2442">
<rect width="32" height="32" fill="white"/>
</clipPath>
</defs>
</svg>
