<svg width="48" height="48" viewBox="0 0 48 48" fill="none" xmlns="http://www.w3.org/2000/svg">
<path d="M40.5 14.002H7.5C6.67157 14.002 6 14.6736 6 15.502C6 16.3304 6.67157 17.002 7.5 17.002H40.5C41.3284 17.002 42 16.3304 42 15.502C42 14.6736 41.3284 14.002 40.5 14.002Z" fill="white"/>
<path d="M34.5 22.502H7.5C6.67157 22.502 6 23.1736 6 24.002C6 24.8304 6.67157 25.502 7.5 25.502H34.5C35.3284 25.502 36 24.8304 36 24.002C36 23.1736 35.3284 22.502 34.5 22.502Z" fill="white"/>
<path d="M40.5 30.998H7.5C6.67157 30.998 6 31.6696 6 32.498C6 33.3264 6.67157 33.998 7.5 33.998H40.5C41.3284 33.998 42 33.3264 42 32.498C42 31.6696 41.3284 30.998 40.5 30.998Z" fill="white"/>
</svg>
