<svg width="32" height="32" viewBox="0 0 32 32" fill="none" xmlns="http://www.w3.org/2000/svg">
<g clip-path="url(#clip0_82_2518)">
<path fill-rule="evenodd" clip-rule="evenodd" d="M27.2293 23.116C25.7787 23.076 24.6533 23.224 23.7093 23.6213C23.4387 23.7307 23.0027 23.7307 22.9667 24.072C23.1133 24.216 23.1293 24.4507 23.2573 24.6493C23.4747 25.0093 23.856 25.496 24.2 25.748L25.36 26.5773C26.068 27.0107 26.8667 27.2627 27.556 27.6947C27.9547 27.948 28.3533 28.272 28.7533 28.5427C28.956 28.6867 29.0787 28.9213 29.3333 29.012V28.9573C29.2067 28.7947 29.1693 28.5613 29.044 28.38L28.4987 27.8573C27.9673 27.1571 27.3309 26.5432 26.612 26.0373C26.032 25.64 24.7627 25.1 24.5267 24.4333L24.4907 24.3933C24.8893 24.3533 25.3613 24.212 25.7427 24.104C26.36 23.9427 26.9213 23.9773 27.556 23.816L28.4267 23.5627V23.4027C28.1 23.0773 27.864 22.644 27.52 22.3387C26.5812 21.5231 25.5804 20.7818 24.5267 20.1213C23.964 19.7613 23.2387 19.5253 22.64 19.22C22.4213 19.112 22.06 19.0573 21.9333 18.8773C21.6053 18.4813 21.4253 17.9573 21.1893 17.4893L19.7013 14.352C19.3747 13.6493 19.1747 12.9467 18.776 12.2987C16.9093 9.23199 14.876 7.37599 11.756 5.55465C11.0853 5.17599 10.288 5.01332 9.43866 4.81599L8.07866 4.74265C7.788 4.61732 7.49733 4.27465 7.244 4.11199C6.21067 3.46265 3.544 2.05732 2.78133 3.91065C2.29067 5.08132 3.50667 6.23465 3.92 6.83065C4.228 7.24399 4.62667 7.71332 4.84533 8.18265C4.96667 8.48932 5.008 8.81332 5.13467 9.13732C5.42533 9.93065 5.69733 10.8147 6.07867 11.5533C6.28133 11.932 6.49466 12.3293 6.74933 12.672C6.89466 12.8733 7.14933 12.96 7.20267 13.2853C6.94933 13.6453 6.93067 14.1853 6.78533 14.6373C6.132 16.6747 6.38533 19.1973 7.312 20.6973C7.60267 21.148 8.28666 22.14 9.216 21.7613C10.0333 21.436 9.85067 20.4093 10.0867 19.508C10.1413 19.292 10.1053 19.148 10.2133 19.0027V19.0427L10.9573 20.54C11.52 21.4227 12.5 22.3427 13.316 22.956C13.7507 23.28 14.0947 23.8387 14.6387 24.036V23.9827H14.604C14.4947 23.8213 14.3307 23.748 14.1853 23.6227C13.8421 23.288 13.5269 22.9259 13.2427 22.54C12.4759 21.5049 11.7967 20.4078 11.212 19.26C10.9213 18.7 10.6667 18.088 10.432 17.5293C10.3213 17.3133 10.3213 16.988 10.1413 16.88C9.868 17.276 9.47066 17.62 9.26933 18.1067C8.92533 18.88 8.88933 19.836 8.76266 20.828C8.68933 20.8467 8.72267 20.828 8.68933 20.868C8.10933 20.7253 7.90933 20.1293 7.692 19.6253C7.148 18.3453 7.05733 16.2907 7.528 14.812C7.656 14.4333 8.2 13.2427 7.98267 12.8827C7.87333 12.54 7.51066 12.3427 7.31067 12.072C7.05852 11.7081 6.83985 11.322 6.65733 10.9187C6.224 9.90799 6.00533 8.79065 5.53333 7.78132C5.316 7.31199 4.93467 6.82532 4.62667 6.39332C4.28133 5.90665 3.90133 5.56399 3.62933 4.98665C3.53866 4.78532 3.412 4.46399 3.55733 4.24799C3.592 4.10399 3.66533 4.04532 3.81067 4.01332C4.04533 3.81199 4.71733 4.06665 4.95333 4.17465C5.624 4.44532 6.18666 4.69732 6.74933 5.07599C7.00267 5.25599 7.27467 5.59865 7.60267 5.68932H7.98267C8.564 5.81599 9.216 5.72932 9.76 5.89199C10.72 6.19865 11.592 6.64799 12.3733 7.13599C14.7731 8.65269 16.7261 10.7806 18.032 13.3013C18.2493 13.716 18.3387 14.0947 18.5387 14.528C18.9213 15.4107 19.392 16.312 19.7733 17.1773C20.1547 18.0253 20.5173 18.8907 21.0613 19.5933C21.3333 19.972 22.4213 20.1707 22.9107 20.3693C23.2733 20.5293 23.836 20.676 24.164 20.8733C24.7787 21.252 25.396 21.6853 25.976 22.1C26.2653 22.316 27.1733 22.7667 27.228 23.1267L27.2293 23.116ZM8.73066 7.45065C8.48025 7.44905 8.23067 7.47952 7.988 7.54132V7.58132H8.024C8.16933 7.86932 8.424 8.06799 8.604 8.32132L9.02133 9.18665L9.05733 9.14665C9.31067 8.96532 9.43866 8.67732 9.43866 8.24532C9.32933 8.11865 9.312 7.99199 9.22133 7.86665C9.112 7.68665 8.876 7.59599 8.73066 7.45199" fill="#ACB1C3"/>
</g>
<defs>
<clipPath id="clip0_82_2518">
<rect width="32" height="32" fill="white"/>
</clipPath>
</defs>
</svg>
