<svg width="32" height="32" viewBox="0 0 32 32" fill="none" xmlns="http://www.w3.org/2000/svg">
<g clip-path="url(#clip0_82_2074)">
<path d="M23.552 23.5333L13.68 10.6666H10.6667V21.3333H13.3333V14.5946L21.4493 25.172C19.1176 26.5593 16.3447 27.0059 13.6952 26.4209C11.0458 25.8358 8.71882 24.2631 7.18811 22.0228C5.65739 19.7825 5.03795 17.0431 5.45588 14.3621C5.87381 11.6812 7.2977 9.26033 9.4377 7.59227C11.5777 5.92421 14.2729 5.13437 16.9748 5.38353C19.6766 5.63269 22.1819 6.90213 23.9808 8.93342C25.7796 10.9647 26.7368 13.6052 26.6573 16.3173C26.5779 19.0295 25.468 21.6094 23.5533 23.532M16 29.3333C23.364 29.3333 29.3333 23.364 29.3333 16C29.3333 8.63596 23.364 2.66663 16 2.66663C8.636 2.66663 2.66667 8.63596 2.66667 16C2.66667 23.364 8.636 29.3333 16 29.3333ZM18.6667 16V10.6666H21.3333V16H18.6667Z" fill="#ACB1C3"/>
</g>
<defs>
<clipPath id="clip0_82_2074">
<rect width="32" height="32" fill="white"/>
</clipPath>
</defs>
</svg>
