<svg width="32" height="32" viewBox="0 0 32 32" fill="none" xmlns="http://www.w3.org/2000/svg">
<g clip-path="url(#clip0_82_2534)">
<path d="M16 2.46667C15.64 2.46667 15.2667 2.56001 14.96 2.73334L5.04 8.46667C4.4 8.84001 4 9.53334 4 10.28V21.72C4 22.4667 4.4 23.16 5.04 23.5333L7.64 25.0267C8.90667 25.64 9.33333 25.6533 9.92 25.6533C11.7867 25.6533 12.8667 24.52 12.8667 22.5467V11.2533C12.8667 11.0933 12.7333 10.96 12.5733 10.96H11.3333C11.16 10.96 11.0267 11.0933 11.0267 11.2533V22.5467C11.0267 23.4267 10.12 24.2933 8.66667 23.56L5.93333 22C5.88844 21.9683 5.85173 21.9264 5.82623 21.8777C5.80073 21.829 5.78717 21.775 5.78667 21.72V10.28C5.78667 10.16 5.84 10.0533 5.93333 10L15.8533 4.28001C15.9333 4.22667 16.0667 4.22667 16.1467 4.28001L26.0667 10C26.16 10.0533 26.2133 10.16 26.2133 10.28V21.72C26.2133 21.8267 26.16 21.9333 26.0667 22L16.1467 27.72C16.0667 27.7733 15.9333 27.7733 15.84 27.72L13.3333 26.2C13.2267 26.16 13.12 26.1467 13.0533 26.1867C12.3467 26.5867 12.2133 26.6667 11.56 26.8667C11.4 26.92 11.1467 27.0133 11.6533 27.2933L14.96 29.2533C15.28 29.44 15.6267 29.5333 16 29.5333C16.3733 29.5333 16.72 29.44 17.04 29.2533L26.96 23.5333C27.6 23.16 28 22.4667 28 21.72V10.28C28 9.53334 27.6 8.84001 26.96 8.46667L17.04 2.73334C16.7333 2.56001 16.3733 2.46667 16 2.46667ZM18.6667 10.6667C15.84 10.6667 14.1467 11.8533 14.1467 13.8533C14.1467 16 15.8267 16.6267 18.5467 16.8933C21.7867 17.2133 22.04 17.6933 22.04 18.3333C22.04 19.44 21.1467 19.9067 19.0667 19.9067C16.4267 19.9067 15.8667 19.2533 15.6667 17.9467C15.6526 17.8791 15.6158 17.8185 15.5625 17.7748C15.5091 17.7311 15.4423 17.7071 15.3733 17.7067H14.0933C13.9333 17.7067 13.8133 17.8267 13.8133 18C13.8133 19.6533 14.72 21.6533 19.0667 21.6533C22.2 21.6533 24 20.4133 24 18.2533C24 16.1067 22.56 15.5467 19.5067 15.1333C16.4267 14.7333 16.12 14.52 16.12 13.8C16.12 13.2 16.3867 12.4 18.6667 12.4C20.6667 12.4 21.4533 12.84 21.76 14.2133C21.7867 14.3467 21.9067 14.44 22.04 14.44H23.3333C23.4 14.44 23.48 14.4133 23.5333 14.3467C23.5867 14.2933 23.6267 14.2133 23.6 14.1333C23.4133 11.76 21.84 10.6667 18.6667 10.6667Z" fill="#ACB1C3"/>
</g>
<defs>
<clipPath id="clip0_82_2534">
<rect width="32" height="32" fill="white"/>
</clipPath>
</defs>
</svg>
