<svg width="22" height="25" viewBox="0 0 22 25" fill="none" xmlns="http://www.w3.org/2000/svg">
<g clip-path="url(#clip0_132_14475)">
<path d="M18.9975 20.9499C10.4659 20.962 3.99088 14.4094 4.00001 5.95246C4.00001 5.40018 4.44772 4.94995 5.00001 4.94995H7.63937C8.13494 4.94995 8.55593 5.31408 8.6287 5.80428C8.80311 6.97915 9.14517 8.12292 9.64448 9.20065L9.74724 9.42246C9.89013 9.73086 9.79328 10.0973 9.51668 10.2948C8.6993 10.8785 8.38692 12.0535 9.0237 12.9703C9.82278 14.1208 10.83 15.1279 11.9803 15.9266C12.897 16.5632 14.0718 16.2508 14.6555 15.4336C14.8532 15.1568 15.2198 15.0599 15.5284 15.2029L15.7492 15.3052C16.827 15.8044 17.9708 16.1465 19.1458 16.3209C19.636 16.3937 20 16.8146 20 17.3102V19.9499C20 20.5022 19.5512 20.9499 18.9989 20.9499L18.9975 20.9499Z" fill="#E2E6EE"/>
</g>
<defs>
<clipPath id="clip0_132_14475">
<rect width="21.25" height="24" fill="white" transform="translate(0 0.949951)"/>
</clipPath>
</defs>
</svg>
