<svg width="32" height="32" viewBox="0 0 32 32" fill="none" xmlns="http://www.w3.org/2000/svg">
<g clip-path="url(#clip0_82_2430)">
<path d="M18.0215 21.533L17.873 21.497C14.5917 20.536 14.0855 17.9193 14.0855 17.9193L18.631 19.1898L21.0375 9.94254L21.0085 9.93479C18.0567 9.14429 16.0985 7.76179 15.3225 7.11179C14.2225 6.19054 13.7387 5.55029 13.2625 6.51879C12.842 7.37304 12.3035 8.76304 11.7825 10.7093C10.6535 14.9235 9.8095 23.8165 16.7892 25.6878L16.9322 25.72L18.0215 21.533ZM13.3197 13.8205C13.3197 13.8205 14.4197 12.1098 16.2852 12.64C18.152 13.1703 18.2965 15.234 18.2965 15.234L13.3197 13.8205ZM11.1905 19.6833L7.94675 20.6025C7.94675 20.6025 8.29925 18.5953 10.6887 17.7995L8.852 10.9063L8.69325 10.9545C6.4155 11.5688 4.57425 11.4058 3.80575 11.2728C2.7165 11.085 2.14675 10.8458 2.20025 11.6743C2.24675 12.405 2.42075 13.5378 2.8195 15.0343C3.682 18.2745 6.533 24.5185 11.9207 23.0673L12.0795 23.0175L11.1905 19.6833ZM4.887 15.0788L8.716 14.07C8.716 14.07 8.6045 15.543 7.169 15.9213C5.73325 16.2993 4.887 15.0788 4.887 15.0788ZM27.343 10.334C26.3477 10.5085 23.96 10.7258 21.009 9.93504C18.0573 9.14454 16.099 7.76204 15.323 7.11204C14.223 6.19079 13.7392 5.55054 13.263 6.51904C12.842 7.37329 12.3037 8.76329 11.7827 10.7095C10.6537 14.9238 9.80975 23.8168 16.7895 25.688C23.7675 27.5578 27.4825 19.4338 28.6117 15.2193C29.1327 13.2735 29.3612 11.8003 29.4242 10.8503C29.496 9.77404 28.7568 10.0865 27.3433 10.3343L27.343 10.334ZM13.3197 13.8205C13.3197 13.8205 14.4197 12.1098 16.2852 12.64C18.152 13.1703 18.2965 15.234 18.2965 15.234L13.3197 13.8205ZM17.8737 21.497C14.5925 20.5358 14.0862 17.9193 14.0862 17.9193L22.901 20.3838C22.901 20.3833 21.1217 22.4463 17.8737 21.497ZM20.9902 16.1195C20.9902 16.1195 22.0888 14.41 23.9538 14.9418C25.8188 15.4728 25.9657 17.5365 25.9657 17.5365L20.9902 16.1195ZM12.933 20.9838V19.189L7.94675 20.603C7.94675 20.603 8.31525 18.4623 10.9157 17.7245C11.7045 17.501 12.3772 17.5025 12.933 17.6098V10.2488H15.4297C15.158 9.40879 14.895 8.76204 14.674 8.31279C14.3087 7.56904 13.934 8.06204 13.0837 8.77329C12.4847 9.27354 10.9712 10.341 8.6935 10.9548C6.41575 11.569 4.5745 11.406 3.806 11.273C2.71675 11.085 2.147 10.846 2.2005 11.6743C2.247 12.405 2.421 13.538 2.81975 15.0343C3.68225 18.2748 6.533 24.5185 11.9207 23.0673C13.328 22.688 14.3217 21.9385 15.0102 20.9833H12.933V20.9838ZM4.887 15.0788L8.716 14.07C8.716 14.07 8.60425 15.543 7.16875 15.9213C5.733 16.2993 4.88675 15.0785 4.88675 15.0785L4.887 15.0788Z" fill="#ACB1C3"/>
</g>
<defs>
<clipPath id="clip0_82_2430">
<rect width="32" height="32" fill="white"/>
</clipPath>
</defs>
</svg>
