<svg width="32" height="32" viewBox="0 0 32 32" fill="none" xmlns="http://www.w3.org/2000/svg">
<g clip-path="url(#clip0_82_2434)">
<path d="M26.2185 17.6625V16.6007C26.2184 16.2998 26.0989 16.0112 25.8861 15.7984C25.6733 15.5856 25.3847 15.466 25.0837 15.466H6.91625C6.61527 15.466 6.32665 15.5856 6.11385 15.7985C5.90105 16.0113 5.7815 16.3 5.7815 16.601V17.6625H26.2185ZM26.2185 30.3177V18.1385H5.7815V30.3177C5.78157 30.6186 5.90114 30.9072 6.11393 31.12C6.32673 31.3328 6.61532 31.4524 6.91625 31.4525H25.0837C25.3847 31.4524 25.6733 31.3328 25.8861 31.12C26.0989 30.9072 26.2184 30.6186 26.2185 30.3177ZM7.02275 14.9902L7.0935 14.2185L6.7935 14.9962C6.834 14.9932 6.87475 14.99 6.916 14.99L7.02275 14.9902ZM24.8528 13.6892L24.9573 14.99H25.0837C25.1512 14.99 25.2175 14.9955 25.2827 15.0037L24.8528 13.6892ZM26.2935 15.541C26.552 15.8335 26.6946 16.2105 26.6945 16.601V30.3177C26.694 30.7448 26.5242 31.1542 26.2222 31.4562C25.9202 31.7581 25.5108 31.928 25.0837 31.9285H6.91625C6.48919 31.928 6.07976 31.7581 5.77779 31.4562C5.47582 31.1542 5.30596 30.7448 5.3055 30.3177V16.6007C5.3055 16.1705 5.476 15.7797 5.75225 15.4905L7.358 11.328L8.05825 3.67871L8.84825 3.75121L8.21725 10.6432L8.43975 10.729L8.138 11.511L7.8195 14.99H24.1615L23.2545 3.73196L24.0452 3.66821L24.5802 10.308L26.2935 15.541ZM7.073 16.242C7.12099 16.2407 7.16875 16.2491 7.21346 16.2665C7.25817 16.284 7.29892 16.3103 7.33331 16.3438C7.3677 16.3773 7.39504 16.4173 7.4137 16.4616C7.43236 16.5058 7.44198 16.5533 7.44198 16.6013C7.44198 16.6493 7.43236 16.6969 7.4137 16.7411C7.39504 16.7853 7.3677 16.8254 7.33331 16.8589C7.29892 16.8924 7.25817 16.9186 7.21346 16.9361C7.16875 16.9536 7.12099 16.962 7.073 16.9607C6.97933 16.9582 6.89032 16.9193 6.82494 16.8522C6.75957 16.785 6.72298 16.695 6.72298 16.6013C6.72298 16.5076 6.75957 16.4176 6.82494 16.3505C6.89032 16.2834 6.97933 16.2444 7.073 16.242ZM8.302 16.242C8.39735 16.242 8.48879 16.2798 8.5562 16.3473C8.62362 16.4147 8.6615 16.5061 8.6615 16.6015C8.6615 16.6968 8.62362 16.7882 8.5562 16.8557C8.48879 16.9231 8.39735 16.961 8.302 16.961C8.20665 16.961 8.11521 16.9231 8.0478 16.8557C7.98038 16.7882 7.9425 16.6968 7.9425 16.6015C7.9425 16.5061 7.98038 16.4147 8.0478 16.3473C8.11521 16.2798 8.20665 16.242 8.302 16.242ZM9.492 16.242C9.58735 16.242 9.67879 16.2798 9.74621 16.3473C9.81362 16.4147 9.8515 16.5061 9.8515 16.6015C9.8515 16.6968 9.81362 16.7882 9.74621 16.8557C9.67879 16.9231 9.58735 16.961 9.492 16.961C9.39665 16.961 9.30521 16.9231 9.23779 16.8557C9.17038 16.7882 9.1325 16.6968 9.1325 16.6015C9.1325 16.5061 9.17038 16.4147 9.23779 16.3473C9.30521 16.2798 9.39665 16.242 9.492 16.242Z" fill="#ACB1C3"/>
<path d="M8.315 24.0415C8.37675 23.9702 8.40925 23.8765 8.40925 23.7597C8.40925 23.643 8.37675 23.553 8.315 23.4815C8.25 23.41 8.159 23.3762 8.042 23.3762H7.47V24.1467H8.042C8.159 24.1467 8.25 24.1127 8.315 24.0415ZM8.042 22.914C8.289 22.914 8.484 22.989 8.63025 23.1432C8.7765 23.2972 8.848 23.504 8.848 23.7597C8.848 24.019 8.7765 24.2222 8.6335 24.376C8.48725 24.5302 8.29225 24.6092 8.042 24.6092H7.47V25.6465H7.0275V22.914H8.042ZM10.427 24.5897V23.7925H10.903V25.5922H10.427V25.43C10.2825 25.5742 10.095 25.6462 9.86075 25.6462C9.64425 25.6462 9.47125 25.5742 9.33775 25.4337C9.20425 25.2932 9.13925 25.1125 9.13925 24.889V23.7925H9.6155V24.788C9.6155 24.9142 9.648 25.019 9.71625 25.0947C9.78125 25.1702 9.86775 25.21 9.9795 25.21C10.279 25.21 10.427 25.0045 10.427 24.5897ZM12.7602 25.0837C12.8539 24.9862 12.9007 24.8564 12.9007 24.6942C12.9007 24.451 12.8537 24.3985 12.7602 24.3012C12.6627 24.2037 12.5437 24.1532 12.3957 24.1532C12.2624 24.1532 12.1434 24.2037 12.0387 24.3047C11.9342 24.4057 11.8837 24.5355 11.8837 24.6942C11.8837 24.853 11.9342 24.9827 12.0387 25.0802C12.1434 25.1812 12.2624 25.2317 12.3957 25.2317C12.5437 25.2317 12.6627 25.1812 12.7602 25.0837ZM12.4787 23.7387C12.7132 23.7387 12.9225 23.8287 13.0992 24.009C13.276 24.193 13.3625 24.4202 13.3625 24.6942C13.3625 24.9682 13.276 25.1955 13.0992 25.376C12.9225 25.5562 12.7167 25.6462 12.4787 25.6462C12.2444 25.6462 12.0461 25.5814 11.8837 25.4517V26.4507H11.4077V23.7925H11.8837V23.937C12.0425 23.8035 12.2407 23.7387 12.4787 23.7387ZM15.0752 25.0837C15.1691 24.9862 15.216 24.8564 15.216 24.6942C15.216 24.451 15.169 24.3985 15.0752 24.3012C14.9777 24.2037 14.859 24.1532 14.711 24.1532C14.5777 24.1532 14.4587 24.2037 14.354 24.3047C14.2495 24.4057 14.199 24.5355 14.199 24.6942C14.199 24.853 14.2495 24.9827 14.354 25.0802C14.4588 25.1812 14.5778 25.2317 14.711 25.2317C14.859 25.2317 14.978 25.1812 15.0752 25.0837ZM14.794 23.7387C15.0285 23.7387 15.2375 23.8287 15.4145 24.009C15.591 24.193 15.6777 24.4202 15.6777 24.6942C15.6777 24.9682 15.591 25.1955 15.4145 25.376C15.2375 25.5562 15.032 25.6462 14.794 25.6462C14.5597 25.6462 14.3613 25.5814 14.199 25.4517V26.4507H13.723V23.7925H14.199V23.937C14.3577 23.8035 14.556 23.7387 14.794 23.7387ZM16.3807 24.485H17.25C17.221 24.3732 17.167 24.2905 17.0912 24.2362C17.0133 24.1809 16.9198 24.1518 16.8242 24.1532C16.7262 24.1531 16.6305 24.1833 16.5502 24.2397C16.4643 24.2966 16.4035 24.3844 16.3807 24.485ZM16.8242 23.7385C17.0695 23.7385 17.2825 23.8252 17.4592 23.9947C17.6357 24.1677 17.726 24.3877 17.7367 24.6582V24.8207H16.3665C16.3915 24.9467 16.4456 25.0476 16.5287 25.1235C16.6115 25.1992 16.7052 25.2387 16.8172 25.2387C17.0227 25.2387 17.1705 25.1595 17.2642 25.0007L17.69 25.091C17.6142 25.275 17.4987 25.412 17.3475 25.5057C17.1958 25.5994 17.0191 25.6462 16.8172 25.6462C16.5572 25.6462 16.3372 25.5562 16.1607 25.3795C15.984 25.2027 15.8937 24.972 15.8937 24.6945C15.8937 24.417 15.984 24.1857 16.1642 24.0055C16.341 23.8287 16.5612 23.7385 16.8242 23.7385ZM19.0492 25.2027C19.1395 25.2027 19.2407 25.174 19.3487 25.1162L19.4857 25.513C19.32 25.6032 19.1647 25.6465 19.017 25.6465C18.797 25.6465 18.6237 25.585 18.4975 25.466C18.3715 25.3472 18.31 25.1702 18.31 24.9285V24.182H17.9242V23.7925H18.31V23.248H18.7862V23.7925H19.374V24.182H18.7862V24.8927C18.7862 25.0982 18.8725 25.2027 19.0492 25.2027ZM20.0482 24.4852H20.9175C20.8887 24.3732 20.8345 24.2902 20.7587 24.2362C20.6808 24.1809 20.5873 24.1518 20.4917 24.1532C20.3937 24.1531 20.298 24.1833 20.2177 24.2397C20.1318 24.2966 20.071 24.3847 20.0482 24.4852ZM20.4917 23.7385C20.7372 23.7385 20.95 23.8252 21.1267 23.9947C21.3035 24.1677 21.3935 24.3877 21.4042 24.6582V24.8207H20.034C20.059 24.9467 20.1131 25.0476 20.1962 25.1235C20.2737 25.198 20.3772 25.2394 20.4847 25.2387C20.6902 25.2387 20.8382 25.1595 20.932 25.0007L21.3575 25.091C21.2817 25.275 21.1662 25.412 21.015 25.5057C20.8635 25.5994 20.6867 25.6462 20.4847 25.6462C20.225 25.6462 20.005 25.5562 19.8282 25.3795C19.6515 25.2027 19.5612 24.972 19.5612 24.6945C19.5612 24.417 19.6515 24.1857 19.832 24.0055C20.0085 23.8287 20.2285 23.7385 20.4917 23.7385ZM22.1867 24.485H23.056C23.0273 24.3732 22.973 24.2905 22.8972 24.2362C22.8193 24.1809 22.7258 24.1518 22.6302 24.1532C22.5322 24.1531 22.4365 24.1833 22.3562 24.2397C22.2703 24.2966 22.2095 24.3844 22.1867 24.485ZM22.6302 23.7385C22.8757 23.7385 23.0885 23.8252 23.2652 23.9947C23.442 24.1677 23.532 24.3877 23.5427 24.6582V24.8207H22.1725C22.1975 24.9467 22.2516 25.0476 22.3347 25.1235C22.4122 25.198 22.5157 25.2394 22.6232 25.2387C22.8287 25.2387 22.9767 25.1595 23.0705 25.0007L23.496 25.091C23.4202 25.275 23.305 25.412 23.1535 25.5057C23.002 25.5994 22.8252 25.6462 22.6232 25.6462C22.3635 25.6462 22.1435 25.5562 21.9667 25.3795C21.79 25.2027 21.6997 24.972 21.6997 24.6945C21.6997 24.417 21.79 24.1857 21.9705 24.0055C22.147 23.8287 22.3673 23.7385 22.6305 23.7385H22.6302ZM25.025 23.7675C25.0792 23.7675 25.1225 23.771 25.1512 23.7817L25.126 24.24H25.0215C24.5922 24.24 24.3795 24.496 24.3795 25.0117V25.5922H23.9035V23.7927H24.3795V24.1207C24.542 23.8862 24.7582 23.7675 25.025 23.7675ZM22.9425 11.082L25.511 9.84198V8.60198L19.577 5.76823L25.511 2.71273V1.51673L23.031 0.365479L16.005 3.86373L8.86025 0.365479L6.55775 1.60548V2.66798L12.1372 5.72373L6.5575 8.55798V9.84198L8.949 11.082L16.0342 7.45073L22.9425 11.082Z" fill="#ACB1C3"/>
<path d="M23.2648 10.5763V10.0423L25.1982 9.04028V9.64028L23.2648 10.5763ZM6.7135 9.02628L8.5815 10.0988V10.5258L6.7135 9.58078V9.02628ZM16.2828 6.77103L22.7095 9.94628V10.5848L16.2825 7.29253V6.77128L16.2828 6.77103ZM9.137 10.0393L15.7273 6.77178V7.29228L9.13725 10.6268L9.137 10.0393ZM13.8035 4.70003L7.13425 1.48003L8.86175 0.602026L16.005 4.30528L23.029 0.603776L24.8172 1.51978L18.3135 4.79253C18.0535 4.92328 18.054 5.29478 18.3143 5.42503L24.7508 8.64653L23.0825 9.51103L16.005 5.88453L8.8025 9.58503L7.1575 8.64053L13.807 5.33503C14.0705 5.20428 14.0685 4.82753 13.8035 4.69953V4.70003ZM6.7965 2.57103V1.98503L13.0165 5.08803L12.3878 5.33953L6.7965 2.57103ZM19.5508 5.37378C19.5423 5.36878 18.955 5.09153 18.955 5.09153L25.1982 1.95003V2.53853L19.5508 5.37378ZM20.1758 5.68153L25.663 2.92653C25.6902 2.91277 25.713 2.89175 25.729 2.8658C25.745 2.83986 25.7535 2.81 25.7535 2.77953V1.47578C25.7534 1.44554 25.745 1.4159 25.7292 1.39011C25.7135 1.36432 25.6909 1.34336 25.664 1.32953L23.1048 0.0185256C23.0816 0.00671778 23.056 0.000540741 23.03 0.000497298C23.0041 0.000453856 22.9784 0.00654523 22.9552 0.0182756L16.0788 3.50778C16.0559 3.51934 16.0306 3.5254 16.0049 3.52549C15.9793 3.52557 15.954 3.51968 15.931 3.50828L8.9335 0.0172756C8.9105 0.00582946 8.88514 -8.58647e-05 8.85944 9.41764e-07C8.83375 8.77482e-05 8.80843 0.00617429 8.7855 0.0177756L6.248 1.30753C6.22095 1.32133 6.19823 1.34234 6.18235 1.36823C6.16647 1.39413 6.15804 1.4239 6.158 1.45428V2.77903C6.158 2.84153 6.1935 2.89878 6.2495 2.92653L11.7598 5.64903L6.275 8.37178C6.24809 8.38522 6.22536 8.40576 6.20927 8.43118C6.19319 8.45661 6.18437 8.48595 6.18375 8.51603L6.16 9.81853C6.15944 9.84945 6.16757 9.87991 6.18349 9.90643C6.1994 9.93296 6.22245 9.95447 6.25 9.96853L8.885 11.3015C8.90797 11.313 8.93331 11.3191 8.959 11.3191C8.9847 11.3191 9.01004 11.313 9.033 11.3015L15.9308 7.83803C15.9538 7.8265 15.9793 7.82054 16.0051 7.82063C16.0309 7.82071 16.0563 7.82684 16.0793 7.83853L22.891 11.302C22.9368 11.325 22.991 11.3258 23.037 11.3033L25.6608 10.0333C25.6885 10.0197 25.712 9.99866 25.7284 9.97245C25.7448 9.94624 25.7535 9.91595 25.7535 9.88503V8.52403C25.7534 8.49331 25.7448 8.46324 25.7285 8.43718C25.7122 8.41112 25.689 8.39011 25.6615 8.37653L20.1758 5.68153Z" fill="#ACB1C3"/>
</g>
<defs>
<clipPath id="clip0_82_2434">
<rect width="32" height="32" fill="white"/>
</clipPath>
</defs>
</svg>
