<svg width="32" height="32" viewBox="0 0 32 32" fill="none" xmlns="http://www.w3.org/2000/svg">
<path d="M16 10H10M10 10H7.97067C6.89467 10 5.79333 10.2507 5.13066 11.0987C4.424 12.004 3.66666 13.5454 3.66666 16C3.66666 18.4534 4.424 19.996 5.13066 20.9014C5.79333 21.7494 6.89467 22 7.97067 22H10M10 10V7.97069C10 6.89469 10.2507 5.79335 11.0987 5.13069C12.004 4.42402 13.5453 3.66669 16 3.66669C18.4533 3.66669 19.996 4.42402 20.9013 5.13069C21.7493 5.79335 22 6.89469 22 7.97069V10M16 22H22M22 22H24.028C25.104 22 26.2067 21.7494 26.868 20.9014C27.576 19.996 28.3333 18.4547 28.3333 16C28.3333 13.5467 27.576 12.004 26.8693 11.0987C26.2067 10.2507 25.104 10 24.0293 10H22M22 22V24.028C22 25.104 21.7493 26.2067 20.9013 26.868C19.996 27.576 18.4547 28.3334 16 28.3334C13.5467 28.3334 12.004 27.576 11.0987 26.8694C10.2507 26.2067 10 25.104 10 24.0294V22M22 10V13.3334C22 14.0406 21.719 14.7189 21.219 15.219C20.7189 15.7191 20.0406 16 19.3333 16H12.6667C11.9594 16 11.2811 16.281 10.781 16.7811C10.281 17.2812 10 17.9594 10 18.6667V22" stroke="#ACB1C3" stroke-width="1.5" stroke-linecap="round" stroke-linejoin="round"/>
<path d="M20 24.6666C20 24.9319 19.8946 25.1862 19.7071 25.3738C19.5196 25.5613 19.2652 25.6666 19 25.6666C18.7348 25.6666 18.4804 25.5613 18.2929 25.3738C18.1054 25.1862 18 24.9319 18 24.6666C18 24.4014 18.1054 24.1471 18.2929 23.9595C18.4804 23.772 18.7348 23.6666 19 23.6666C19.2652 23.6666 19.5196 23.772 19.7071 23.9595C19.8946 24.1471 20 24.4014 20 24.6666ZM12 7.33331C12 7.0681 12.1054 6.81374 12.2929 6.62621C12.4804 6.43867 12.7348 6.33331 13 6.33331C13.2652 6.33331 13.5196 6.43867 13.7071 6.62621C13.8946 6.81374 14 7.0681 14 7.33331C14 7.59853 13.8946 7.85288 13.7071 8.04042C13.5196 8.22796 13.2652 8.33331 13 8.33331C12.7348 8.33331 12.4804 8.22796 12.2929 8.04042C12.1054 7.85288 12 7.59853 12 7.33331Z" fill="#ACB1C3"/>
</svg>
