<svg width="32" height="28" viewBox="0 0 32 28" fill="none" xmlns="http://www.w3.org/2000/svg">
<g clip-path="url(#clip0_82_2080)">
<path d="M15.65 16.825C17.224 16.825 18.5 15.549 18.5 13.975C18.5 12.401 17.224 11.125 15.65 11.125C14.076 11.125 12.8 12.401 12.8 13.975C12.8 15.549 14.076 16.825 15.65 16.825Z" fill="#ACB1C3"/>
<path d="M26.475 9.275C25.925 9.075 25.35 8.875 24.75 8.7C24.9 8.1 25.025 7.5 25.125 6.925C25.65 3.625 25.075 1.3 23.475 0.4C23 0.125 22.475 0 21.875 0C20.125 0 17.9 1.3 15.65 3.475C13.4 1.3 11.175 0 9.425 0C8.825 0 8.3 0.125 7.825 0.4C6.225 1.325 5.65 3.65 6.175 6.925C6.275 7.5 6.4 8.1 6.55 8.7C5.95 8.875 5.375 9.05 4.825 9.275C1.7 10.475 0 12.125 0 13.975C0 15.825 1.725 17.475 4.825 18.675C5.375 18.875 5.95 19.075 6.55 19.25C6.4 19.85 6.275 20.45 6.175 21.025C5.65 24.325 6.225 26.65 7.825 27.55C8.3 27.825 8.825 27.95 9.425 27.95C11.2 27.95 13.425 26.65 15.65 24.475C17.9 26.65 20.125 27.95 21.875 27.95C22.475 27.95 23 27.825 23.475 27.55C25.075 26.625 25.65 24.3 25.125 21.025C25.025 20.45 24.9 19.85 24.75 19.25C25.35 19.075 25.925 18.9 26.475 18.675C29.6 17.475 31.3 15.825 31.3 13.975C31.3 12.125 29.6 10.475 26.475 9.275ZM22.775 1.65C23.8 2.25 24.15 4.1 23.725 6.725C23.65 7.25 23.525 7.8 23.375 8.375C22.075 8.075 20.7 7.875 19.25 7.75C18.4 6.55 17.525 5.475 16.65 4.5C18.5 2.675 20.375 1.425 21.9 1.425C22.225 1.425 22.525 1.5 22.775 1.65ZM19.975 16.475C19.525 17.275 19 18.075 18.45 18.875C17.525 18.95 16.6 18.975 15.65 18.975C14.675 18.975 13.75 18.95 12.85 18.875C12.3 18.075 11.8 17.275 11.35 16.475C10.875 15.65 10.425 14.8 10.025 13.975C10.425 13.15 10.875 12.3 11.35 11.475C11.8 10.675 12.325 9.875 12.875 9.075C13.8 9 14.725 8.975 15.675 8.975C16.65 8.975 17.575 9 18.475 9.075C19.025 9.875 19.525 10.675 19.975 11.475C20.45 12.3 20.9 13.15 21.3 13.975C20.875 14.8 20.45 15.625 19.975 16.475ZM22.05 15.65C22.425 16.525 22.725 17.375 23 18.225C22.15 18.425 21.25 18.575 20.3 18.7C20.6 18.225 20.925 17.725 21.2 17.2C21.5 16.675 21.775 16.15 22.05 15.65ZM15.65 22.425C15.05 21.775 14.475 21.075 13.925 20.35C14.5 20.375 15.075 20.4 15.65 20.4C16.225 20.4 16.8 20.375 17.375 20.35C16.825 21.075 16.25 21.775 15.65 22.425ZM11 18.675C10.05 18.55 9.15 18.4 8.3 18.2C8.575 17.375 8.875 16.5 9.25 15.625C9.525 16.125 9.8 16.65 10.1 17.15C10.4 17.7 10.7 18.175 11 18.675ZM9.25 12.3C8.875 11.425 8.575 10.575 8.3 9.725C9.15 9.525 10.05 9.375 11 9.25C10.7 9.725 10.375 10.225 10.1 10.75C9.8 11.275 9.525 11.8 9.25 12.3ZM15.65 5.525C16.25 6.175 16.825 6.875 17.375 7.6C16.8 7.575 16.225 7.55 15.65 7.55C15.075 7.55 14.5 7.575 13.925 7.6C14.475 6.875 15.05 6.175 15.65 5.525ZM21.2 10.775L20.3 9.275C21.25 9.4 22.15 9.55 23 9.75C22.725 10.575 22.425 11.45 22.05 12.325C21.775 11.8 21.5 11.275 21.2 10.775ZM7.575 6.725C7.15 4.1 7.5 2.25 8.525 1.65C8.775 1.5 9.075 1.425 9.4 1.425C10.9 1.425 12.775 2.65 14.65 4.5C13.775 5.45 12.9 6.55 12.05 7.75C10.6 7.875 9.225 8.1 7.925 8.375C7.775 7.8 7.675 7.25 7.575 6.725ZM1.4 13.975C1.4 12.8 2.825 11.55 5.325 10.625C5.825 10.425 6.375 10.25 6.925 10.1C7.325 11.35 7.825 12.675 8.425 14C7.825 15.325 7.3 16.625 6.925 17.875C3.475 16.875 1.4 15.375 1.4 13.975ZM8.525 26.3C7.5 25.7 7.15 23.85 7.575 21.225C7.65 20.7 7.775 20.15 7.925 19.575C9.225 19.875 10.6 20.075 12.05 20.2C12.9 21.4 13.775 22.475 14.65 23.45C12.8 25.275 10.925 26.525 9.4 26.525C9.075 26.525 8.775 26.45 8.525 26.3ZM23.725 21.225C24.15 23.85 23.8 25.7 22.775 26.3C22.525 26.45 22.225 26.525 21.9 26.525C20.4 26.525 18.525 25.3 16.65 23.45C17.525 22.5 18.4 21.4 19.25 20.2C20.7 20.075 22.075 19.85 23.375 19.575C23.525 20.15 23.625 20.7 23.725 21.225ZM25.975 17.325C25.475 17.525 24.925 17.7 24.375 17.85C23.975 16.6 23.475 15.275 22.875 13.95C23.475 12.625 24 11.325 24.375 10.075C27.825 11.075 29.9 12.575 29.9 13.975C29.9 15.15 28.45 16.4 25.975 17.325Z" fill="#ACB1C3"/>
</g>
<defs>
<clipPath id="clip0_82_2080">
<rect width="31.3" height="27.95" fill="white"/>
</clipPath>
</defs>
</svg>
