<svg width="32" height="32" viewBox="0 0 32 32" fill="none" xmlns="http://www.w3.org/2000/svg">
<g clip-path="url(#clip0_82_2538)">
<path d="M25.6 20.8C23.52 20.8 21.76 22.08 21.12 24H14.4C14.4 22.88 14.08 21.92 13.6 21.12L24.96 9.43998C25.44 9.43998 25.92 9.59998 26.4 9.59998C28.64 9.59998 30.4 7.83998 30.4 5.59998C30.4 3.35998 28.64 1.59998 26.4 1.59998C24.16 1.59998 22.4 3.35998 22.4 5.59998C22.4 6.07998 22.56 6.71998 22.72 7.19998L11.52 18.72C10.56 17.92 9.28 17.6 8 17.6V10.88C9.92 10.24 11.2 8.47998 11.2 6.39998C11.2 3.67998 9.12 1.59998 6.4 1.59998C3.68 1.59998 1.6 3.67998 1.6 6.39998C1.6 8.47998 2.88 10.24 4.8 10.88V18.4C2.88 19.52 1.6 21.6 1.6 23.84C1.6 27.36 4.48 30.24 8 30.24C10.4 30.24 12.48 28.96 13.44 27.04H20.96C21.6 28.8 23.36 30.24 25.44 30.24C28 30.24 30.24 28.16 30.24 25.44C30.4 22.88 28.16 20.8 25.6 20.8Z" fill="#ACB1C3"/>
</g>
<defs>
<clipPath id="clip0_82_2538">
<rect width="32" height="32" fill="white"/>
</clipPath>
</defs>
</svg>
