<svg width="32" height="32" viewBox="0 0 32 32" fill="none" xmlns="http://www.w3.org/2000/svg">
<g clip-path="url(#clip0_82_2088)">
<path fill-rule="evenodd" clip-rule="evenodd" d="M0 13.3436C0 13.5832 0.0527582 13.7413 0.0823232 13.895C0.275005 14.8945 0.68917 15.7523 1.18056 16.5347C1.88043 17.6497 2.73756 18.5473 3.61559 19.3915C4.37714 20.1234 5.15424 20.8391 5.91886 21.5656C6.05011 21.6904 6.17424 21.8338 6.31671 21.9868C6.19412 22.0754 6.09217 22.1535 5.98614 22.2254C4.97711 22.9097 4.00631 23.6768 3.11146 24.6061C2.57215 25.1663 2.05069 25.7617 1.6824 26.5397C1.08983 27.791 0.880068 29.1242 1.32176 30.5476C1.45072 30.9633 1.64748 31.3225 1.92504 31.588C2.01501 31.6739 2.11593 31.7591 2.2212 31.7925C2.49085 31.8773 2.7656 31.9329 3.03857 32L3.81159 31.9993C4.66642 31.8974 5.44454 31.5059 6.14773 30.857C7.24673 29.8429 7.98713 28.4831 8.30546 26.738C8.53688 25.4696 8.54631 24.1999 8.2736 22.9373C8.2474 22.8203 8.2173 22.705 8.18338 22.5917C8.15025 22.4782 8.11125 22.3678 8.06537 22.2264L9.81786 20.879L9.84411 20.9089C9.81225 21.0483 9.77836 21.1874 9.74956 21.3281C9.54133 22.345 9.40293 23.3796 9.45263 24.435C9.50565 25.5596 9.74038 26.6123 10.2328 27.5518C10.6309 28.3117 11.5795 28.34 12.0026 27.5773C12.1527 27.3064 12.2983 27.0232 12.4076 26.721C12.6933 25.9321 12.9579 25.1292 13.2308 24.3318L13.2785 24.1859C13.2589 24.5635 13.2359 24.8951 13.2255 25.227C13.2092 25.7453 13.2319 26.2606 13.3644 26.7537C13.4778 27.1756 13.6707 27.4908 14.0321 27.5463C14.2794 27.5842 14.4764 27.4329 14.6581 27.241C14.9396 26.9434 15.1729 26.5725 15.344 26.1508C15.8285 24.9612 16.326 23.7787 16.7651 22.559C17.2402 21.2398 17.6556 19.8822 18.0968 18.5405L18.1697 18.3027C18.274 18.8503 18.3466 19.3867 18.4804 19.8944C18.6359 20.4837 18.8283 21.0589 19.0378 21.6181C19.1369 21.8822 19.1255 22.0536 18.9881 22.2751C18.4131 23.2021 17.8481 24.1402 17.2825 25.0774C17.1574 25.2842 17.0327 25.4948 16.9285 25.7208C16.8652 25.8634 16.8237 26.0214 16.8062 26.1856C16.7886 26.3368 16.8155 26.4911 16.8812 26.6164C16.9469 26.7416 17.0464 26.8279 17.1586 26.8573C17.3853 26.9224 17.6176 26.9445 17.8488 26.923C18.6382 26.8454 19.3549 26.4749 19.9885 25.8472C20.8094 25.0341 21.0729 23.9245 20.8741 22.6094C20.8204 22.2526 20.7253 21.9057 20.6328 21.5619C20.5912 21.4068 20.5884 21.2981 20.6641 21.1536C21.3204 19.9006 21.8811 18.5712 22.4026 17.2111C22.4232 17.1576 22.4444 17.1041 22.4806 17.0469C22.6496 18.2226 22.9039 19.3557 23.3596 20.3838C23.1272 20.6834 22.897 20.955 22.6888 21.2542C22.2303 21.9132 21.8327 22.6289 21.6252 23.5016C21.536 23.8778 21.4675 24.2602 21.5072 24.662C21.5689 25.2859 21.9512 25.6915 22.4102 25.5494C23.3925 25.2454 24.2405 24.6265 24.8601 23.5302C25.277 22.7921 25.315 21.9688 25.1404 21.1063C25.0925 20.8718 25.0357 20.6411 24.9745 20.3722C25.2169 20.2717 25.4531 20.1511 25.6976 20.0764C26.9666 19.6893 28.2218 19.7568 29.4447 20.3695C30.1586 20.7273 30.7353 21.3261 31.0774 22.268C31.4951 23.4195 31.2642 24.512 30.4524 25.2399C30.3767 25.3077 30.2901 25.3612 30.2274 25.4461C30.2073 25.4772 30.1923 25.5136 30.1833 25.5529C30.1743 25.5922 30.1715 25.6336 30.1751 25.6744C30.1805 25.7163 30.2633 25.7688 30.311 25.7681C30.5778 25.7654 30.7942 25.5783 31.0019 25.3861C31.5224 24.9046 31.9021 24.2568 31.9839 23.4038L32 23.3397L31.9804 22.7843C31.9725 22.7522 31.9862 22.7205 31.9845 22.6963C31.8738 21.4542 31.3776 20.4908 30.6558 19.7356C29.8198 18.8615 28.8327 18.5017 27.7888 18.4448C26.9421 18.396 26.0965 18.5701 25.3 18.957C25.0713 19.0677 24.8448 19.1989 24.6149 19.3226C24.584 19.248 24.5509 19.1764 24.5236 19.1025C24.2876 18.4563 24.0017 17.8389 23.9384 17.098C23.8936 16.5718 23.8385 16.0463 23.9321 15.526C24.022 15.0254 24.1393 14.5333 24.2496 14.0395C24.3065 13.7853 24.2665 13.6428 24.085 13.5283C24.0216 13.4868 23.9542 13.4572 23.8847 13.4404C23.4386 13.3538 22.9987 13.4033 22.5667 13.5713C22.4138 13.6309 22.3027 13.7454 22.2688 13.9717C22.2494 14.1015 22.2099 14.2259 22.1824 14.354C22.0695 14.8867 21.9895 15.4295 21.807 15.937C21.3497 17.2098 20.8278 18.4345 20.2935 19.6504C20.2357 19.7816 20.1748 19.9105 20.1019 20.0696C19.9143 19.5448 19.7142 19.0738 19.6536 18.5218C19.585 17.8975 19.531 17.2742 19.6472 16.6546C19.7336 16.1925 19.8465 15.739 19.9505 15.283C19.9997 15.0663 19.977 14.9524 19.8302 14.8383C19.756 14.7807 19.6722 14.7296 19.5886 14.7129C19.1312 14.6197 18.6639 14.6708 18.224 14.8621C18.0856 14.9221 18.013 15.0417 17.9707 15.2326C17.8463 15.7955 17.7403 16.3721 17.5657 16.9075C16.8587 19.0749 16.1313 21.231 15.4046 23.3868C15.253 23.8369 15.0753 24.2714 14.9043 24.7097C14.861 24.8208 14.7978 24.9186 14.7437 25.0229C14.7004 24.9544 14.6836 24.9073 14.6838 24.8603C14.6851 24.5832 14.6604 24.298 14.6999 24.0302C14.8212 23.2201 14.9553 22.4135 15.1021 21.611C15.2219 20.9478 15.3613 20.2908 15.4941 19.632C15.5387 19.4116 15.5394 19.2054 15.4209 19.02C15.2219 18.7096 14.8059 18.6414 14.5592 18.8806L14.4501 18.9631L14.4713 18.728C14.5233 18.2239 14.5337 17.7216 14.4303 17.2251C14.3013 16.6062 13.971 16.2501 13.4908 16.2699C13.267 16.2791 13.032 16.3302 12.8248 16.4393C11.9534 16.8959 11.2834 17.7046 10.713 18.6775C10.6601 18.7678 10.5945 18.8435 10.52 18.9004C9.78269 19.447 9.04306 19.9868 8.30368 20.5286L7.4807 21.1315C7.25998 20.85 7.0594 20.5579 6.8318 20.3102C6.13677 19.5523 5.43052 18.8131 4.73065 18.0638C4.1103 17.3996 3.50931 16.7078 3.04952 15.8282C2.70749 15.1739 2.48703 14.458 2.46587 13.649C2.43911 12.6181 2.65779 11.6762 3.05029 10.7993C3.55238 9.67749 4.23722 8.77715 4.99011 7.96166C5.78658 7.09949 6.64804 6.36749 7.54085 5.69922C8.78997 4.76446 10.0748 3.93704 11.4523 3.39077C12.8648 2.83053 14.298 2.50985 15.7762 2.7334C16.3573 2.82132 16.9216 2.99921 17.4398 3.37918C17.8366 3.66987 18.1621 4.05052 18.3135 4.64552C18.4628 5.23099 18.4582 5.82428 18.3547 6.41895C18.1445 7.62327 17.6513 8.61596 17.0307 9.50301C16.0127 10.9571 14.771 11.9471 13.373 12.6011C12.5692 12.9775 11.733 13.216 10.8842 13.3109C10.1887 13.3889 9.50769 13.3065 8.8491 12.9831C8.41302 12.7687 8.03326 12.4409 7.72793 11.9652C7.67338 11.88 7.60355 11.7876 7.50186 11.8674C7.4022 11.9457 7.38462 12.0725 7.418 12.201C7.47382 12.4143 7.5253 12.6365 7.61222 12.8273C7.83064 13.3061 8.14923 13.6534 8.49993 13.9512C9.17355 14.5241 9.92644 14.7166 10.7071 14.7613C11.8917 14.8298 13.0476 14.5933 14.1871 14.1683C15.8139 13.5617 17.2285 12.4903 18.3629 10.8C19.3075 9.3926 19.9821 7.80422 20.1266 5.88631C20.1972 4.95018 20.122 4.03314 19.7943 3.17914C19.4387 2.25392 18.8734 1.56589 18.1975 1.09186C17.2132 0.401781 16.1509 0 15.0544 0H13.9559C12.6281 0 11.3443 0.508786 10.0964 1.11572C9.15189 1.57543 8.22569 2.11795 7.32651 2.71841C5.36834 4.02667 3.54474 5.60414 2.04686 7.77321C1.3006 8.85383 0.66878 10.0462 0.305335 11.4502C0.195828 11.8695 0.101334 12.2955 0.0221737 12.7268M7.11751 24.9993C7.03264 26.5189 6.51755 27.7508 5.67571 28.7486C5.20216 29.3095 4.65903 29.7089 4.02644 29.8493C3.79706 29.9001 3.56232 29.9124 3.33982 29.7853C3.02251 29.604 2.9514 29.2274 2.94528 28.8263C2.93585 28.187 3.1033 27.609 3.33294 27.059C3.63267 26.342 4.07206 25.7954 4.54128 25.2849C5.28041 24.4803 6.08223 23.7995 6.90342 23.1567L6.96535 23.1227C7.09228 23.7497 7.15268 24.3689 7.11751 24.9993ZM13.5295 18.3953C13.4696 18.8806 13.3947 19.3662 13.2887 19.8365C12.9222 21.4644 12.4514 23.0419 11.9425 24.5982C11.8484 24.8862 11.7115 25.1489 11.5925 25.4219C11.5723 25.4638 11.548 25.5021 11.5204 25.5357C11.3731 25.7303 11.2334 25.7201 11.159 25.4655C11.0723 25.1697 11.0191 24.8531 10.9732 24.54C10.9424 24.3297 10.9497 24.1089 10.9401 23.8935C10.95 22.362 11.2994 20.9703 11.8923 19.6746C12.1367 19.1403 12.4028 18.6312 12.8093 18.2931C12.9358 18.1881 13.0726 18.1071 13.2158 18.0525C13.4324 17.9711 13.5655 18.105 13.5295 18.3953ZM17.9041 25.8475L19.4764 23.3929C19.5419 24.3045 18.383 26.1243 17.9041 25.8475ZM22.9258 24.1958C22.8147 24.281 22.6937 24.3423 22.5797 24.421C22.4755 24.4933 22.4411 24.4204 22.438 24.3004C22.4366 24.2174 22.4445 24.1345 22.4617 24.0547C22.674 23.0535 23.0648 22.1988 23.6461 21.5036L23.6869 21.4757C23.9634 22.5099 23.6438 23.6458 22.9258 24.1958Z" fill="#ACB1C3"/>
</g>
<defs>
<clipPath id="clip0_82_2088">
<rect width="32" height="32" fill="white"/>
</clipPath>
</defs>
</svg>
