<svg width="32" height="32" viewBox="0 0 32 32" fill="none" xmlns="http://www.w3.org/2000/svg">
<g clip-path="url(#clip0_82_2522)">
<g clip-path="url(#clip1_82_2522)">
<path fill-rule="evenodd" clip-rule="evenodd" d="M17.6 25.6C18.4487 25.6 19.2626 25.9371 19.8627 26.5373C20.4629 27.1374 20.8 27.9513 20.8 28.8C20.8 29.6487 20.4629 30.4626 19.8627 31.0627C19.2626 31.6629 18.4487 32 17.6 32C16.7513 32 15.9374 31.6629 15.3373 31.0627C14.7371 30.4626 14.4 29.6487 14.4 28.8C14.4 27.9513 14.7371 27.1374 15.3373 26.5373C15.9374 25.9371 16.7513 25.6 17.6 25.6ZM7.5856 20.8C8.64647 20.8 9.66388 21.2214 10.414 21.9716C11.1642 22.7217 11.5856 23.7391 11.5856 24.8C11.5856 25.8609 11.1642 26.8783 10.414 27.6284C9.66388 28.3786 8.64647 28.8 7.5856 28.8C6.52473 28.8 5.50732 28.3786 4.75717 27.6284C4.00703 26.8783 3.5856 25.8609 3.5856 24.8C3.5856 23.7391 4.00703 22.7217 4.75717 21.9716C5.50732 21.2214 6.52473 20.8 7.5856 20.8ZM26.1104 21.6C26.9591 21.6 27.773 21.9371 28.3731 22.5373C28.9733 23.1374 29.3104 23.9513 29.3104 24.8C29.3104 25.6487 28.9733 26.4626 28.3731 27.0627C27.773 27.6629 26.9591 28 26.1104 28C25.2617 28 24.4478 27.6629 23.8477 27.0627C23.2475 26.4626 22.9104 25.6487 22.9104 24.8C22.9104 23.9513 23.2475 23.1374 23.8477 22.5373C24.4478 21.9371 25.2617 21.6 26.1104 21.6ZM29.6 14.9104C30.2365 14.9104 30.847 15.1633 31.2971 15.6133C31.7471 16.0634 32 16.6739 32 17.3104C32 17.9469 31.7471 18.5574 31.2971 19.0075C30.847 19.4575 30.2365 19.7104 29.6 19.7104C28.9635 19.7104 28.353 19.4575 27.9029 19.0075C27.4529 18.5574 27.2 17.9469 27.2 17.3104C27.2 16.6739 27.4529 16.0634 27.9029 15.6133C28.353 15.1633 28.9635 14.9104 29.6 14.9104ZM4 9.6C5.06087 9.6 6.07828 10.0214 6.82843 10.7716C7.57857 11.5217 8 12.5391 8 13.6C8 14.6609 7.57857 15.6783 6.82843 16.4284C6.07828 17.1786 5.06087 17.6 4 17.6C2.93913 17.6 1.92172 17.1786 1.17157 16.4284C0.421427 15.6783 0 14.6609 0 13.6C0 12.5391 0.421427 11.5217 1.17157 10.7716C1.92172 10.0214 2.93913 9.6 4 9.6ZM28.4576 8.3312C28.8819 8.3312 29.2889 8.49977 29.589 8.79983C29.889 9.09989 30.0576 9.50685 30.0576 9.9312C30.0576 10.3555 29.889 10.7625 29.589 11.0626C29.2889 11.3626 28.8819 11.5312 28.4576 11.5312C28.0333 11.5312 27.6263 11.3626 27.3262 11.0626C27.0262 10.7625 26.8576 10.3555 26.8576 9.9312C26.8576 9.50685 27.0262 9.09989 27.3262 8.79983C27.6263 8.49977 28.0333 8.3312 28.4576 8.3312ZM12.8 0C14.073 0 15.2939 0.505713 16.1941 1.40589C17.0943 2.30606 17.6 3.52696 17.6 4.8C17.6 6.07304 17.0943 7.29394 16.1941 8.19411C15.2939 9.09429 14.073 9.6 12.8 9.6C11.527 9.6 10.3061 9.09429 9.40589 8.19411C8.50571 7.29394 8 6.07304 8 4.8C8 3.52696 8.50571 2.30606 9.40589 1.40589C10.3061 0.505713 11.527 0 12.8 0ZM24.8 4.8C25.0122 4.8 25.2157 4.88429 25.3657 5.03431C25.5157 5.18434 25.6 5.38783 25.6 5.6C25.6 5.81217 25.5157 6.01566 25.3657 6.16569C25.2157 6.31571 25.0122 6.4 24.8 6.4C24.5878 6.4 24.3843 6.31571 24.2343 6.16569C24.0843 6.01566 24 5.81217 24 5.6C24 5.38783 24.0843 5.18434 24.2343 5.03431C24.3843 4.88429 24.5878 4.8 24.8 4.8Z" fill="#ACB1C3"/>
</g>
</g>
<defs>
<clipPath id="clip0_82_2522">
<rect width="32" height="32" fill="white"/>
</clipPath>
<clipPath id="clip1_82_2522">
<rect width="32" height="32" fill="white"/>
</clipPath>
</defs>
</svg>
