<svg width="32" height="32" viewBox="0 0 32 32" fill="none" xmlns="http://www.w3.org/2000/svg">
<g clip-path="url(#clip0_82_2458)">
<path d="M8.562 15.256C10.9502 16.0945 13.4693 16.4985 16 16.449C18.5307 16.4982 21.0498 16.0938 23.438 15.255C25.302 14.528 25.963 13.72 25.963 13.255V9.69995C25.3111 10.1361 24.612 10.497 23.879 10.776C21.3524 11.6805 18.6833 12.1216 16 12.078C13.317 12.12 10.6483 11.6797 8.121 10.778C7.38754 10.4992 6.68834 10.1375 6.037 9.69995V13.25C6.037 13.724 6.7 14.528 8.562 15.256ZM8.562 21.961C9.40559 22.2827 10.2755 22.5307 11.162 22.702C12.7561 23.0097 14.3764 23.1614 16 23.155C17.6235 23.1617 19.2438 23.0104 20.838 22.703C21.7245 22.5317 22.5944 22.2837 23.438 21.962C25.302 21.235 25.963 20.427 25.963 19.962V16.572C25.4243 16.8961 24.8581 17.1722 24.271 17.397C21.6167 18.3365 18.8152 18.7914 16 18.74C13.1845 18.7898 10.383 18.3332 7.729 17.392C7.14246 17.1658 6.57639 16.8898 6.037 16.567V19.96C6.037 20.426 6.7 21.231 8.562 21.961ZM16 30C21.5 30 25.963 28.256 25.963 26.106V23.269C25.4729 23.5644 24.9596 23.8192 24.428 24.031L24.271 24.094C21.6172 25.0362 18.8157 25.4938 16 25.445C13.1842 25.496 10.3822 25.0383 7.729 24.094L7.572 24.031C7.04042 23.8192 6.52705 23.5644 6.037 23.269V26.106C6.037 28.256 10.5 30 16 30Z" fill="#ACB1C3"/>
<path d="M16 9.788C21.5024 9.788 25.963 8.0446 25.963 5.894C25.963 3.7434 21.5024 2 16 2C10.4976 2 6.037 3.7434 6.037 5.894C6.037 8.0446 10.4976 9.788 16 9.788Z" fill="#ACB1C3"/>
</g>
<defs>
<clipPath id="clip0_82_2458">
<rect width="32" height="32" fill="white"/>
</clipPath>
</defs>
</svg>
