<svg width="32" height="32" viewBox="0 0 32 32" fill="none" xmlns="http://www.w3.org/2000/svg">
<g clip-path="url(#clip0_82_2094)">
<path d="M14.2362 1.42368C19.3369 -1.27977 26.3887 -0.0181632 29.9591 4.23469C30.8065 5.22157 31.4087 6.33929 31.7302 7.52231C32.0518 8.70534 32.0863 9.92987 31.8317 11.1241C31.584 12.2645 31.0611 13.3513 30.2945 14.3189C31.4125 16.0935 31.788 18.1269 31.3601 20.0993C31.1079 21.27 30.5649 22.3841 29.7657 23.3702C28.9665 24.3562 27.9287 25.1927 26.7188 25.826L17.763 30.5759C12.6623 33.2794 5.61053 32.0192 2.03833 27.7663C1.19129 26.7791 0.589666 25.661 0.268715 24.4777C-0.052236 23.2944 -0.0860497 22.0697 0.169256 20.8755C0.416958 19.7351 0.939879 18.6483 1.70644 17.6807C0.588261 15.9062 0.212712 13.8722 0.639144 11.9003C0.891485 10.7294 1.43479 9.61532 2.23429 8.62922C3.03379 7.64312 4.07187 6.80674 5.28213 6.17361L14.2362 1.42368ZM9.09888 27.9873C10.4649 28.4088 11.9514 28.4698 13.3611 28.166C14.0056 28.0222 14.6188 27.7983 15.1812 27.5004L24.1388 22.7519C24.8663 22.3707 25.4903 21.8675 25.9709 21.2744C26.4515 20.6812 26.7783 20.0112 26.9302 19.3072C27.0831 18.589 27.0623 17.8528 26.8688 17.1414C26.6753 16.4301 26.3131 15.7581 25.8035 15.1648C24.974 14.1691 23.7971 13.4094 22.4319 12.9883C21.0667 12.5672 19.579 12.505 18.17 12.8102C17.5254 12.954 16.9123 13.1779 16.3498 13.4758L12.9314 15.2869C12.7622 15.3772 12.5772 15.4449 12.3829 15.4874C12.1076 15.5467 11.821 15.5598 11.5396 15.5261C11.2583 15.4923 10.9878 15.4123 10.7439 15.2906C10.5001 15.169 10.2877 15.0083 10.1193 14.8177C9.95081 14.6272 9.82959 14.4107 9.76266 14.1808C9.70272 13.9661 9.69677 13.7434 9.74519 13.5267C9.79126 13.3151 9.88955 13.1138 10.0339 12.9354C10.1782 12.757 10.3654 12.6055 10.5837 12.4904L19.543 7.74045C19.7121 7.65014 19.8972 7.58246 20.0915 7.53987C20.5163 7.44875 20.9644 7.46802 21.3757 7.59507C21.7869 7.72213 22.1416 7.9509 22.392 8.25062C22.6663 8.57329 22.7938 8.96573 22.7536 9.35816L22.7221 9.63432L23.0558 9.71862C24.3146 10.0348 25.4991 10.5279 26.5581 11.1765L27.0175 11.4555L27.1852 11.0267C27.276 10.799 27.3477 10.5674 27.4001 10.332C27.5533 9.61397 27.5327 8.87774 27.3395 8.16643C27.1463 7.45512 26.7845 6.78305 26.2751 6.1896C25.4457 5.19342 24.2687 4.43322 22.9031 4.01184C21.5375 3.59045 20.0494 3.52821 18.6399 3.83353C17.9955 3.97598 17.3815 4.20053 16.8197 4.49922L7.8604 9.2477C7.13225 9.62858 6.50759 10.1317 6.02635 10.7248C5.54511 11.3179 5.21786 11.9881 5.06553 12.6924C4.91258 13.4105 4.93345 14.1468 5.12692 14.8581C5.32039 15.5694 5.68256 16.2415 6.19221 16.8348C7.02184 17.8307 8.19902 18.5906 9.56458 19.0118C10.9301 19.4329 12.4182 19.4949 13.8275 19.1894C14.472 19.0455 15.0852 18.8217 15.6476 18.5252L19.0644 16.7113C19.2367 16.6211 19.4201 16.5548 19.6146 16.5121C19.8898 16.4535 20.1762 16.4408 20.4574 16.4748C20.7385 16.5089 21.0087 16.589 21.2524 16.7105C21.4961 16.832 21.7084 16.9926 21.877 17.1828C22.0456 17.373 22.1672 17.5892 22.2348 17.8188C22.2942 18.0325 22.2994 18.2548 22.254 18.4714C22.2075 18.6832 22.1087 18.8847 21.9638 19.0631C21.8188 19.2415 21.631 19.3929 21.412 19.5077L12.4562 24.2591C12.287 24.3489 12.1019 24.4161 11.9077 24.4583C11.4831 24.5495 11.0351 24.5305 10.6238 24.4037C10.2126 24.2769 9.85783 24.0484 9.6072 23.749C9.33335 23.4269 9.20527 23.0345 9.24561 22.6414L9.27531 22.3653L8.94342 22.281C7.6846 21.9648 6.50007 21.4717 5.44109 20.8231L4.98168 20.5441L4.81399 20.9728C4.72525 21.2005 4.65349 21.4325 4.59913 21.6676C4.44594 22.3856 4.46653 23.1218 4.6597 23.8332C4.85286 24.5445 5.21472 25.2165 5.72407 25.81C6.55336 26.8059 7.73016 27.5659 9.09539 27.9873" fill="#ACB1C3"/>
</g>
<defs>
<clipPath id="clip0_82_2094">
<rect width="32" height="32" fill="white"/>
</clipPath>
</defs>
</svg>
