<svg width="32" height="33" viewBox="0 0 32 33" fill="none" xmlns="http://www.w3.org/2000/svg">
<g clip-path="url(#clip0_126_10218)">
<path d="M16 8.94995C12.44 8.94995 10.2267 10.7233 9.33333 14.2833C10.6667 12.51 12.2267 11.8433 14 12.2833C15.0133 12.5366 15.7467 13.27 16.5467 14.0833C17.8533 15.4166 19.3333 16.95 22.6667 16.95C26.2267 16.95 28.44 15.1766 29.3333 11.6166C28 13.39 26.44 14.0566 24.6667 13.6166C23.6533 13.3633 22.9333 12.63 22.12 11.8166C20.8133 10.4833 19.3333 8.94995 16 8.94995ZM9.33333 16.95C5.77333 16.95 3.56 18.7233 2.66667 22.2833C4 20.51 5.56 19.8433 7.33333 20.2833C8.34667 20.5366 9.06667 21.27 9.88 22.0833C11.1867 23.4166 12.6667 24.95 16 24.95C19.56 24.95 21.7733 23.1766 22.6667 19.6166C21.3333 21.39 19.7733 22.0566 18 21.6166C16.9867 21.3633 16.2667 20.63 15.4533 19.8166C14.1467 18.4833 12.6667 16.95 9.33333 16.95Z" fill="#ACB1C3"/>
</g>
<defs>
<clipPath id="clip0_126_10218">
<rect width="32" height="32" fill="white" transform="translate(0 0.949951)"/>
</clipPath>
</defs>
</svg>
