<svg width="22" height="22" viewBox="0 0 22 22" fill="none" xmlns="http://www.w3.org/2000/svg">
<g clip-path="url(#clip0_774_6933)">
<path d="M20.1401 7.38122C19.6142 6.12621 18.8492 4.98549 17.8877 4.02263C16.9291 3.05811 15.7903 2.29125 14.5361 1.7656C13.2513 1.22449 11.8709 0.947127 10.4768 0.949973H10.4299C9.01193 0.957004 7.64083 1.23825 6.34943 1.79138C5.106 2.32242 3.97796 3.09064 3.02833 4.0531C2.07614 5.01379 1.31991 6.15052 0.80177 7.39997C0.263921 8.69926 -0.00861268 10.093 0.000207437 11.4992C0.00723869 13.1258 0.396301 14.7406 1.12286 16.1843V19.7468C1.12286 20.3422 1.60568 20.825 2.19864 20.825H5.75646C7.20694 21.5569 8.80757 21.942 10.4322 21.95H10.4815C11.883 21.95 13.2401 21.6781 14.5197 21.1461C15.7676 20.6267 16.9021 19.8688 17.8596 18.9148C18.8252 17.9562 19.5846 16.8359 20.1166 15.5867C20.6674 14.2929 20.9486 12.9172 20.9557 11.4968C20.9604 10.0695 20.6838 8.68435 20.1401 7.38122ZM5.79864 12.575C5.17989 12.575 4.67599 12.0711 4.67599 11.45C4.67599 10.8289 5.17989 10.325 5.79864 10.325C6.41739 10.325 6.9213 10.8289 6.9213 11.45C6.9213 12.0711 6.41974 12.575 5.79864 12.575ZM10.4768 12.575C9.85802 12.575 9.35411 12.0711 9.35411 11.45C9.35411 10.8289 9.85802 10.325 10.4768 10.325C11.0955 10.325 11.5994 10.8289 11.5994 11.45C11.5994 12.0711 11.0955 12.575 10.4768 12.575ZM15.1549 12.575C14.5361 12.575 14.0322 12.0711 14.0322 11.45C14.0322 10.8289 14.5361 10.325 15.1549 10.325C15.7736 10.325 16.2776 10.8289 16.2776 11.45C16.2776 12.0711 15.7736 12.575 15.1549 12.575Z" fill="#E2E6EE"/>
</g>
<defs>
<clipPath id="clip0_774_6933">
<rect width="21.25" height="21" fill="white" transform="translate(0 0.949951)"/>
</clipPath>
</defs>
</svg>
