<svg width="24" height="25" viewBox="0 0 24 25" fill="none" xmlns="http://www.w3.org/2000/svg">
<g clip-path="url(#clip0_140_17231)">
<path d="M19.995 7.63794C20.8914 7.10203 21.5622 6.25818 21.882 5.26394C21.0396 5.76374 20.118 6.11582 19.157 6.30494C17.8246 4.89547 15.7135 4.55247 14.0034 5.4676C12.2933 6.38273 11.4075 8.32943 11.841 10.2199C8.39061 10.0467 5.17597 8.41686 2.997 5.73594C1.85984 7.69736 2.44095 10.2047 4.325 11.4659C3.64371 11.444 2.97753 11.2596 2.382 10.9279C2.382 10.9459 2.382 10.9639 2.382 10.9819C2.38239 13.0251 3.82237 14.785 5.825 15.1899C5.19306 15.3619 4.53021 15.3872 3.887 15.2639C4.4502 17.0112 6.06055 18.2082 7.896 18.2439C6.37583 19.4371 4.49848 20.0841 2.566 20.0809C2.22347 20.0814 1.88121 20.0617 1.541 20.0219C3.50339 21.283 5.78737 21.9523 8.12 21.9499C11.3652 21.9722 14.484 20.6928 16.7787 18.398C19.0734 16.1031 20.3526 12.9842 20.33 9.73894C20.33 9.55294 20.3257 9.36794 20.317 9.18394C21.1575 8.57654 21.8828 7.82409 22.459 6.96194C21.676 7.309 20.8455 7.53686 19.995 7.63794Z" fill="white"/>
</g>
<defs>
<clipPath id="clip0_140_17231">
<rect width="24" height="24" fill="white" transform="translate(0 0.949951)"/>
</clipPath>
</defs>
</svg>
