<svg width="32" height="32" viewBox="0 0 32 32" fill="none" xmlns="http://www.w3.org/2000/svg">
<path d="M28.1212 0H3.87879C1.73659 0 0 1.73659 0 3.87879V28.1212C0 30.2634 1.73659 32 3.87879 32H28.1212C30.2634 32 32 30.2634 32 28.1212V3.87879C32 1.73659 30.2634 0 28.1212 0Z" stroke="#ACB1C3" stroke-width="5" stroke-linecap="round" stroke-linejoin="round"/>
<path d="M26.182 14.5454H22.3032C21.7889 14.5454 21.2956 14.7497 20.9319 15.1134C20.5682 15.4772 20.3638 15.9704 20.3638 16.4848V18.4242C20.3638 18.9386 20.5682 19.4318 20.9319 19.7956C21.2956 20.1593 21.7889 20.3636 22.3032 20.3636H24.2426C24.757 20.3636 25.2503 20.5679 25.614 20.9316C25.9777 21.2953 26.182 21.7886 26.182 22.303V24.2424C26.182 24.7567 25.9777 25.25 25.614 25.6137C25.2503 25.9774 24.757 26.1818 24.2426 26.1818H20.3638M11.1517 14.5454V26.1818M7.27293 14.5454H15.0305" stroke="#ACB1C3" stroke-width="2" stroke-linecap="round" stroke-linejoin="round"/>
</svg>
