<svg width="45" height="40" viewBox="0 0 45 40" fill="none" xmlns="http://www.w3.org/2000/svg">
<path d="M23.5344 0L8.24655 15.4039C6.21777 18.2869 5.63745 21.1049 7.77766 24.1411C8.50189 25.1671 14.4072 31.0631 15.41 31.7502C16.7563 32.6695 18.2698 30.4132 18.864 29.2572C16.9559 26.3371 10.0107 22.6045 11.2224 18.8301L28.8454 0.896018L30.0153 0.668525C35.9903 7.8598 47.1463 12.9805 43.7897 24.0111C42.1463 29.4104 32.8984 35.3714 29.3236 40H22.1416L37.6337 24.3408C39.3143 22.0334 39.384 18.4169 37.6848 16.0771L29.0961 8.03622C28.409 8.96473 26.4963 9.92572 26.8306 11.1746C27.4852 13.6583 36.3153 17.6787 34.0776 21.7085L15.8928 39.9907C11.1574 34.3176 0.813867 28.1198 0.79994 20.0047C0.786012 11.8895 11.8677 5.58497 16.3524 0.00929412H23.5344V0Z" fill="#ACB1C3"/>
</svg>
