<svg width="43" height="40" viewBox="0 0 43 40" fill="none" xmlns="http://www.w3.org/2000/svg">
<path d="M13.3833 16.6242C13.4782 16.5868 15.2894 16.5925 15.413 16.6242C15.5194 16.65 16.9971 17.9897 17.0172 18.0961C15.1226 22.5838 19.0929 27.1951 23.8594 25.7893C24.1009 25.7174 24.7363 25.2891 24.8426 25.2661C26.2485 24.9671 28.7525 25.4903 30.2762 25.2661L32.0759 27.7212L29.1636 30.6996C28.9192 30.737 26.9471 29.0351 26.6768 28.9977C26.4583 28.969 25.0439 29.794 24.6472 29.7825L24.1239 32.8587H19.8691L19.3775 29.8803C19.0871 29.748 17.4513 28.9747 17.3162 28.9977C17.0402 29.0379 15.0421 30.7255 14.8294 30.6996L11.9171 27.7874L13.6852 25.3006L12.7365 23.2393L9.69196 22.6816V18.5561C9.79545 18.3635 12.5208 18.1708 12.8026 17.9984C12.9866 17.8862 13.1648 16.7104 13.3919 16.6242H13.3833Z" fill="#ACB1C3"/>
<path d="M19.6851 8.42493H23.8738L24.4315 11.4694C24.765 11.4752 26.2542 12.3463 26.3635 12.352C26.5475 12.3664 28.5771 10.7823 28.9164 10.584L31.8948 13.5624C31.9063 13.7119 30.1468 15.8019 30.1267 15.9859C30.1066 16.1699 30.9748 17.5527 30.9115 17.9495L34.1199 18.6049V22.7304C34.0279 22.9374 31.3399 23.1185 31.0093 23.3514C30.7851 23.5095 30.6241 24.5818 30.4199 24.6595C30.3222 24.6968 28.4248 24.6882 28.3241 24.6595C28.2149 24.6278 26.7343 23.1674 26.72 23.0553C28.7899 18.9643 24.7075 14.1287 20.2716 15.362C19.9036 15.4598 19.1532 15.9773 18.9635 16.0175C17.5404 16.3194 15.0048 15.7904 13.4638 16.0175L11.7303 13.5624L14.6425 10.584C14.8409 10.561 16.9309 12.3233 17.1293 12.352C17.2328 12.3664 18.7421 11.4867 19.0929 11.5672L19.6822 8.42493H19.6851Z" fill="#ACB1C3"/>
<path d="M23.2126 16.0032C24.972 16.5782 26.1507 17.9466 26.651 19.7032C26.5762 19.9015 26.4354 19.522 26.2916 19.5393C26.1076 19.5623 24.0521 21.9025 23.6726 22.1583L20.3665 18.9844L23.2155 16.0061L23.2126 16.0032Z" fill="#ACB1C3"/>
<path d="M19.8087 19.407L23.1148 22.647C22.8101 22.9575 20.7718 25.1942 20.5936 25.2344C18.9319 24.9297 17.4312 23.2105 17.1897 21.5689C17.2673 21.6293 17.3421 21.7759 17.4513 21.7644C17.6181 21.7472 19.4637 19.637 19.8087 19.407Z" fill="#ACB1C3"/>
<path d="M2.01026 18.5561C2.11951 18.5188 4.19231 18.5216 4.30156 18.5561C4.49992 18.6223 5.24165 20.2178 5.34802 20.2581C5.74188 20.4133 7.51856 19.9993 7.67093 20.4881V20.8158C7.52144 21.293 5.76775 20.9049 5.34802 21.0458C5.16977 21.1062 4.4568 22.627 4.30156 22.6816C4.19231 22.719 2.11664 22.7219 2.01026 22.6816C1.90389 22.6414 0.802807 20.7382 0.799932 20.6203C0.797057 20.5024 1.89814 18.5964 2.01026 18.559V18.5561Z" fill="#ACB1C3"/>
<path d="M24.1297 5.39774C30.0951 6.08484 36.2503 11.6823 37.061 17.7397C37.1012 18.0674 37.2162 18.4584 36.9632 18.6884C36.2244 19.1541 36.0979 17.0928 35.9484 16.6271C34.4822 12.0589 31.1272 8.26976 26.4871 6.77481C26.0875 6.64544 24.0377 6.26308 23.9342 6.18545C23.6726 5.98996 23.7962 5.46099 24.1297 5.40061V5.39774Z" fill="#ACB1C3"/>
<path d="M36.5694 22.5494C37.5928 22.2734 36.8166 24.6337 36.6671 25.1368C35.2325 29.981 30.9288 34.2301 26.0271 35.5123C25.6218 35.6186 23.9055 36.1131 23.7675 35.61C23.572 34.897 25.3314 34.8769 25.8288 34.7274C30.8167 33.2066 34.3873 29.6504 35.9426 24.6768C36.0663 24.2829 36.2819 22.6241 36.5636 22.5494H36.5694Z" fill="#ACB1C3"/>
<path d="M19.481 5.3978C20.0186 5.42367 20.1077 6.0619 19.6765 6.24876C19.2453 6.43563 17.8797 6.56788 17.253 6.772C12.1155 8.44806 8.19992 13.1916 7.4007 18.5246C6.61873 19.0823 6.59573 18.3751 6.6791 17.7397C7.21095 13.712 10.7643 9.18979 14.2401 7.23198C15.2262 6.67713 18.4403 5.34605 19.4781 5.3978H19.481Z" fill="#ACB1C3"/>
<path d="M21.3813 0.0302983C23.5921 -0.306064 24.7104 2.23822 23.0171 3.69579C22.859 3.83091 22.3157 3.98041 22.2639 4.12128C22.0972 4.58701 22.6779 6.91279 21.7062 6.64255C21.2088 6.50456 21.6401 4.51226 21.4762 4.12128C21.4474 4.05228 20.5447 3.73604 20.2314 3.33643C19.3344 2.18359 19.9352 0.24879 21.3784 0.0302983H21.3813Z" fill="#ACB1C3"/>
<path d="M7.23969 23.9265C7.33456 23.9121 7.48981 23.9437 7.56743 23.9926C7.68818 24.0702 8.23153 25.9619 8.38677 26.3155C10.1433 30.3432 13.5242 33.3561 17.7158 34.6642C18.101 34.7849 19.7857 35.0379 19.9093 35.2219C20.3061 35.8141 19.4839 35.8716 19.09 35.8429C16.0139 35.6158 11.7964 32.7294 9.89034 30.3749C9.06238 29.3514 6.8717 25.6342 6.87745 24.4181C6.87745 24.2226 7.02695 23.961 7.23681 23.9265H7.23969Z" fill="#ACB1C3"/>
<path d="M34.9997 31.8468C38.1074 31.6369 37.7021 36.6335 34.6058 35.9061C32.4899 35.4088 32.7342 31.9992 34.9997 31.8468Z" fill="#ACB1C3"/>
<path d="M8.35228 31.7806C11.1611 31.4012 11.4083 35.4001 9.13713 35.7739C6.26223 36.2454 5.85975 32.117 8.35228 31.7806Z" fill="#ACB1C3"/>
<path d="M8.22004 5.33165C11.0921 4.92916 11.3623 9.00864 8.94164 9.32488C6.15012 9.68999 5.86263 5.66226 8.22004 5.33165Z" fill="#ACB1C3"/>
<path d="M10.5774 35.0552C10.7126 35.0351 12.5295 36.3719 12.8687 36.5616C14.8783 37.6771 17.2472 38.4993 19.5471 38.7235C19.7915 38.8213 19.7455 39.7269 19.7771 40C16.0972 39.6119 12.61 38.1141 9.69485 35.8745C9.8731 35.8084 10.52 35.0638 10.5774 35.0552Z" fill="#ACB1C3"/>
<path d="M34.7352 5.46385C37.4807 5.20798 37.682 9.14372 35.3907 9.45708C32.4612 9.85669 32.28 5.69384 34.7352 5.46385Z" fill="#ACB1C3"/>
<path d="M32.97 35.1213L33.7893 36.0039C31.0122 38.1802 27.5134 39.6924 23.9687 39.931C23.9342 39.8821 24.0291 38.8299 24.0664 38.7839C24.1556 38.6775 26.3951 38.3785 26.8148 38.2607C29.0429 37.6426 31.1502 36.53 32.97 35.1184V35.1213Z" fill="#ACB1C3"/>
<path d="M6.51809 8.7355C6.63021 8.89362 7.35181 9.4801 7.33744 9.6181C7.32881 9.6986 6.48647 10.7077 6.35423 10.9262C5.50326 12.3349 4.69253 14.0512 4.25843 15.641C4.14055 16.0694 3.86744 18.145 3.80132 18.26C3.68345 18.4613 2.88135 18.3147 2.65423 18.3578C2.47887 18.2859 2.8181 16.4661 2.88423 16.1642C3.44771 13.5308 4.79603 10.7911 6.51809 8.73264V8.7355Z" fill="#ACB1C3"/>
<path d="M24.0665 1.27231C27.6026 1.67192 30.9806 3.07774 33.7894 5.23391L32.9068 6.11651C31.0611 4.71068 28.9337 3.59235 26.6884 2.97425C26.2974 2.86788 24.285 2.60913 24.2016 2.51713C24.1585 2.47114 24.1153 1.46205 24.0693 1.27231H24.0665Z" fill="#ACB1C3"/>
<path d="M19.09 1.33841C19.1935 1.35278 19.2452 1.32403 19.32 1.43615L19.2223 2.58323C16.8016 2.8966 14.4988 3.76481 12.4145 5.00677C12.1299 5.17639 10.9397 6.17398 10.8419 6.18548C10.7183 6.19698 10.1318 5.3575 9.89322 5.30288C12.4691 3.27033 15.8356 1.68914 19.0929 1.34128L19.09 1.33841Z" fill="#ACB1C3"/>
<path d="M2.78648 22.9432C2.84686 22.9173 3.6892 22.9375 3.7352 22.9748C3.82145 23.0467 4.03706 24.8579 4.12906 25.2C4.54304 26.7668 5.22727 28.3768 6.02649 29.7826C6.20186 30.0902 7.35469 31.5679 7.33457 31.68C7.32307 31.7404 6.52097 32.3039 6.51522 32.5626C5.32789 31.1108 4.24693 29.2536 3.60295 27.4884C3.41034 26.9566 2.28625 23.1588 2.78361 22.9375L2.78648 22.9432Z" fill="#ACB1C3"/>
<path d="M40.8903 22.9432C40.991 22.9749 41.1203 23.5958 41.1203 23.6965C41.1203 24.3893 40.4648 26.5627 40.2032 27.2987C39.5391 29.176 38.4438 30.9613 37.291 32.5684L36.3423 31.749C38.2972 29.2594 39.6426 26.2235 39.9445 23.041C40.0997 23.064 40.8472 22.9289 40.8932 22.9432H40.8903Z" fill="#ACB1C3"/>
<path d="M37.4203 9.0632C39.1108 11.0613 40.37 13.9074 40.922 16.4948C40.9795 16.7679 41.2928 18.306 41.152 18.3606C40.9593 18.3261 40.0911 18.4181 40.0049 18.329C39.9186 18.2399 39.6541 16.2303 39.5478 15.8422C38.944 13.6515 37.8573 11.5845 36.5349 9.75317L37.4175 9.06608L37.4203 9.0632Z" fill="#ACB1C3"/>
<path d="M21.7723 34.6613L22.1 34.7274C22.2811 34.8453 22.5974 37.5793 21.7062 37.2142C21.41 37.1337 21.3899 35.1471 21.4762 34.8913C21.5107 34.7907 21.7004 34.7332 21.7694 34.6613H21.7723Z" fill="#ACB1C3"/>
<path d="M39.2545 18.5562C39.3609 18.5131 41.4394 18.5131 41.5458 18.5562C41.6522 18.5993 42.6613 20.3156 42.6929 20.422C42.7561 20.6434 42.7561 20.5916 42.6929 20.8158C42.6613 20.9222 41.6493 22.6443 41.5458 22.6817C41.4423 22.719 39.3638 22.719 39.2545 22.6817C39.0878 22.6242 38.438 21.1177 38.2081 21.0458C37.7682 20.9078 36.1784 21.2615 35.9484 20.882C35.6724 19.778 37.6158 20.4565 38.2081 20.261C38.3834 20.2035 39.1625 18.5964 39.2545 18.5591V18.5562Z" fill="#ACB1C3"/>
<path d="M39.3839 18.7545C39.4788 18.7171 41.3187 18.72 41.4136 18.7545C41.5286 18.7947 42.5434 20.5542 42.4945 20.7525C42.4687 20.8503 41.5113 22.4545 41.4136 22.4861C41.3158 22.5177 39.4817 22.5177 39.3839 22.4861C39.2804 22.4516 38.3001 20.7295 38.303 20.6203C38.3058 20.511 39.2833 18.7918 39.3839 18.7545Z" fill="#ACB1C3"/>
</svg>
