<svg width="41" height="40" viewBox="0 0 41 40" fill="none" xmlns="http://www.w3.org/2000/svg">
<path fill-rule="evenodd" clip-rule="evenodd" d="M27.7786 38.7525C38.1248 34.8726 43.4013 23.3884 39.5732 13.0422C35.6934 2.696 24.2091 -2.58055 13.8629 1.24754C3.51676 5.12736 -1.81152 16.6116 2.0683 26.9578C5.94812 37.304 17.4324 42.5806 27.7786 38.7525ZM7.24139 23.4918C5.43081 16.5082 9.20717 9.36929 15.9322 6.88621C23.1745 4.1962 31.2445 7.86909 33.9346 15.1114C34.0898 15.5253 34.2449 15.9391 34.3484 16.353C34.5553 17.0772 34.1932 17.8532 33.469 18.1118L17.7428 23.854C16.4495 24.3195 15.0528 23.854 14.3803 22.7159C13.8112 21.7847 13.863 20.6466 14.5355 19.7155C14.8458 19.3016 15.3114 18.9912 15.8287 18.7843L27.1578 14.5941C24.9334 11.9558 21.2087 10.9212 17.898 12.1628C17.5876 12.2662 17.3289 12.3697 17.0703 12.5249C13.4491 14.3355 11.6385 18.6291 12.8801 22.5089C13.6043 24.6816 15.1045 26.4405 17.1737 27.4234C19.243 28.4063 21.5709 28.5097 23.6918 27.7338C26.1749 26.8026 27.9855 24.8886 28.7615 22.4055C28.9684 21.6813 29.4857 21.1639 30.1582 20.9053L31.4515 20.4397C32.4344 20.0776 33.5207 20.4397 34.1415 21.3191C34.5553 21.8882 34.6071 22.6124 34.4519 23.2849C33.3655 27.8372 30.1065 31.4584 25.7093 33.1138C18.8809 35.6486 11.3281 32.6482 8.22428 26.0784C8.01736 25.7163 7.86217 25.3024 7.70697 24.8886C7.50005 24.423 7.34486 23.9574 7.24139 23.4918Z" fill="#ACB1C3"/>
</svg>
