<svg width="229" height="40" viewBox="0 0 229 40" fill="none" xmlns="http://www.w3.org/2000/svg">
<path fill-rule="evenodd" clip-rule="evenodd" d="M27.7786 38.7525C38.1248 34.8726 43.4013 23.3884 39.5732 13.0422C35.6934 2.696 24.2091 -2.58055 13.8629 1.24754C3.51676 5.12736 -1.81152 16.6116 2.0683 26.9578C5.94812 37.304 17.4324 42.5806 27.7786 38.7525ZM7.24139 23.4918C5.43081 16.5082 9.20717 9.36929 15.9322 6.88621C23.1745 4.1962 31.2445 7.86909 33.9346 15.1114C34.0898 15.5253 34.2449 15.9391 34.3484 16.353C34.5553 17.0772 34.1932 17.8532 33.469 18.1118L17.7428 23.854C16.4495 24.3195 15.0528 23.854 14.3803 22.7159C13.8112 21.7847 13.863 20.6466 14.5355 19.7155C14.8458 19.3016 15.3114 18.9912 15.8287 18.7843L27.1578 14.5941C24.9334 11.9558 21.2087 10.9212 17.898 12.1628C17.5876 12.2662 17.3289 12.3697 17.0703 12.5249C13.4491 14.3355 11.6385 18.6291 12.8801 22.5089C13.6043 24.6816 15.1045 26.4405 17.1737 27.4234C19.243 28.4063 21.5709 28.5097 23.6918 27.7338C26.1749 26.8026 27.9855 24.8886 28.7615 22.4055C28.9684 21.6813 29.4857 21.1639 30.1582 20.9053L31.4515 20.4397C32.4344 20.0776 33.5207 20.4397 34.1415 21.3191C34.5553 21.8882 34.6071 22.6124 34.4519 23.2849C33.3655 27.8372 30.1065 31.4584 25.7093 33.1138C18.8809 35.6486 11.3281 32.6482 8.22428 26.0784C8.01736 25.7163 7.86217 25.3024 7.70697 24.8886C7.50005 24.423 7.34486 23.9574 7.24139 23.4918Z" fill="#ACB1C3"/>
<path d="M67.4044 26.0267H70.3531C70.6118 23.1815 70.3014 20.6984 69.4737 18.5774C68.5943 16.4564 67.301 14.801 65.4904 13.663C63.6798 12.4732 61.5588 11.9041 58.9723 11.9041C56.5927 11.9041 54.42 12.4214 52.6094 13.5078C50.7471 14.5424 49.2986 16.0426 48.264 17.9566C47.2294 19.8707 46.7121 22.0951 46.7121 24.6817C46.7121 27.0613 47.2294 29.1305 48.3157 30.9928C49.4021 32.8034 50.8505 34.2519 52.7646 35.2865C54.6786 36.3211 56.8513 36.8384 59.3344 36.8384C61.6623 36.8384 63.835 36.2177 65.8008 35.0278C67.7666 33.838 69.215 32.1309 70.1462 30.0099L64.0419 28.3028C63.5764 29.2857 62.9556 30.0099 62.0762 30.5273C61.1967 31.0446 60.2138 31.3032 58.9723 31.3032C57.0583 31.3032 55.6098 30.6824 54.6269 29.4926C53.9027 28.6132 53.4371 27.4751 53.2819 26.0267H64.3006H67.4044ZM59.231 17.0772C61.0415 17.0772 62.2831 17.5945 63.1108 18.6809C63.6281 19.3534 63.9385 20.388 64.1454 21.6295H53.4888C53.7475 20.5432 54.1096 19.612 54.6786 18.9395C55.6098 17.698 57.1617 17.0772 59.231 17.0772Z" fill="#ACB1C3"/>
<path d="M86.1311 36.8384C83.5962 36.8384 81.4235 36.2694 79.6647 35.183C77.8541 34.0967 76.4574 32.5965 75.5262 30.7342C74.5433 28.8719 74.0778 26.7509 74.0778 24.3713C74.0778 21.9916 74.5951 19.8189 75.578 17.9566C76.5608 16.0943 77.9576 14.5941 79.8199 13.5078C81.6305 12.4214 83.8032 11.9041 86.2863 11.9041C89.1315 11.9041 91.5628 12.6283 93.5286 14.0251C95.4944 15.4218 96.7359 17.3359 97.2532 19.7672L91.149 21.3191C90.7868 20.0776 90.1661 19.1464 89.2866 18.4739C88.4072 17.8014 87.3726 17.4393 86.2345 17.4393C84.9413 17.4393 83.9066 17.7497 83.0789 18.3705C82.2512 18.9913 81.6305 19.8189 81.2684 20.8536C80.8545 21.8882 80.6993 23.078 80.6993 24.3713C80.6993 26.4405 81.1649 28.0959 82.0961 29.3892C83.0272 30.6824 84.4239 31.3032 86.2863 31.3032C87.683 31.3032 88.7176 30.9928 89.4418 30.3721C90.1661 29.7513 90.6834 28.8719 91.0455 27.7338L97.3049 29.0271C96.6324 31.5101 95.2874 33.4759 93.3734 34.8209C91.4593 36.1659 88.9245 36.8384 86.1311 36.8384Z" fill="#ACB1C3"/>
<path d="M124.36 21.0605C124.309 20.181 124.102 19.2499 123.843 18.2153C123.533 17.1807 123.067 16.146 122.394 15.2149C121.722 14.232 120.791 13.456 119.601 12.8353C118.411 12.2145 116.859 11.9041 114.945 11.9041C112.566 11.9041 110.6 12.4214 108.996 13.4043C108.272 13.8699 107.599 14.4389 107.03 15.0597V4.7135H101.599V36.2176H107.806V24.2161C107.806 22.7676 107.962 21.5778 108.324 20.6466C108.686 19.7672 109.1 19.0947 109.617 18.6291C110.134 18.1635 110.703 17.8532 111.324 17.698C111.945 17.5428 112.462 17.4393 113.031 17.4393C114.324 17.4393 115.359 17.698 116.083 18.267C116.808 18.836 117.325 19.5603 117.635 20.388C117.946 21.2157 118.153 22.0951 118.204 22.9228C118.256 23.7505 118.308 24.4747 118.308 24.992V36.2176H124.515V22.9228C124.464 22.5607 124.412 21.9399 124.36 21.0605Z" fill="#ACB1C3"/>
<path d="M149.708 26.0267H152.657C152.916 23.1815 152.605 20.6984 151.778 18.5774C150.898 16.4564 149.605 14.801 147.794 13.663C145.984 12.4732 143.863 11.9041 141.276 11.9041C138.897 11.9041 136.724 12.4214 134.913 13.5078C133.051 14.5424 131.603 16.0426 130.568 17.9566C129.533 19.8707 129.016 22.0951 129.016 24.6817C129.016 27.0613 129.533 29.1305 130.62 30.9928C131.706 32.8034 133.155 34.2519 135.069 35.2865C136.983 36.3211 139.155 36.8384 141.638 36.8384C143.966 36.8384 146.139 36.2177 148.105 35.0278C150.071 33.838 151.519 32.1309 152.45 30.0099L146.346 28.3028C145.88 29.2857 145.26 30.0099 144.38 30.5273C143.501 31.0446 142.518 31.3032 141.276 31.3032C139.362 31.3032 137.914 30.6824 136.931 29.4926C136.207 28.6132 135.741 27.4751 135.586 26.0267H146.605H149.708ZM141.535 17.0772C143.346 17.0772 144.587 17.5945 145.415 18.6809C145.932 19.3534 146.242 20.388 146.449 21.6295H135.793C136.051 20.5432 136.414 19.612 136.983 18.9395C137.914 17.698 139.466 17.0772 141.535 17.0772Z" fill="#ACB1C3"/>
<path d="M164.245 4.041H158.141V36.2176H164.245V4.041Z" fill="#ACB1C3"/>
<path d="M181.988 36.8384C179.557 36.8384 177.384 36.3211 175.522 35.2348C173.66 34.1484 172.211 32.6999 171.228 30.8376C170.194 28.9753 169.677 26.8026 169.677 24.3713C169.677 21.8882 170.194 19.7155 171.228 17.8532C172.263 15.9909 173.712 14.5424 175.574 13.456C177.436 12.4214 179.557 11.9041 181.937 11.9041C184.368 11.9041 186.541 12.4214 188.403 13.5078C190.265 14.5941 191.714 16.0426 192.749 17.9049C193.783 19.7672 194.3 21.9399 194.3 24.3713C194.3 26.8026 193.783 28.9753 192.749 30.8376C191.714 32.6999 190.265 34.2001 188.403 35.2348C186.541 36.3211 184.42 36.8384 181.988 36.8384ZM181.988 31.3032C183.954 31.3032 185.403 30.6824 186.386 29.3892C187.369 28.0959 187.834 26.4405 187.834 24.423C187.834 22.302 187.317 20.6466 186.334 19.4051C185.351 18.1636 183.903 17.5428 181.937 17.5428C180.592 17.5428 179.505 17.8532 178.626 18.4222C177.747 18.9913 177.126 19.8189 176.712 20.8536C176.298 21.8882 176.091 23.078 176.091 24.4747C176.091 26.5957 176.608 28.2511 177.591 29.4926C178.626 30.6824 180.074 31.3032 181.988 31.3032Z" fill="#ACB1C3"/>
<path d="M221.977 21.0605C221.925 20.1811 221.718 19.2499 221.459 18.2153C221.149 17.1807 220.683 16.1461 220.011 15.2149C219.338 14.232 218.407 13.456 217.217 12.8353C216.027 12.2145 214.476 11.9041 212.561 11.9041C210.182 11.9041 208.216 12.4214 206.612 13.4043C205.888 13.8699 205.216 14.4389 204.647 15.0597V12.6283H199.215V36.2177H205.423V24.2161C205.423 22.7676 205.578 21.5778 205.94 20.6466C206.302 19.7672 206.716 19.0947 207.233 18.6291C207.751 18.1636 208.32 17.8532 208.94 17.698C209.561 17.5428 210.078 17.4393 210.647 17.4393C211.941 17.4393 212.975 17.698 213.7 18.267C214.424 18.8361 214.941 19.5603 215.251 20.388C215.562 21.2157 215.769 22.0951 215.821 22.9228C215.872 23.7505 215.924 24.4747 215.924 24.992V36.2177H222.132V22.9228C222.08 22.5607 222.028 21.9399 221.977 21.0605Z" fill="#ACB1C3"/>
<path d="M228.495 10.8178C228.495 12.3697 227.305 13.5595 225.753 13.5595C224.201 13.5595 223.011 12.3697 223.011 10.8178C223.011 9.26583 224.201 8.07602 225.753 8.07602C227.305 8.07602 228.495 9.26583 228.495 10.8178ZM227.822 10.8178C227.822 9.57622 226.943 8.69679 225.701 8.69679C224.46 8.69679 223.58 9.62795 223.58 10.8695C223.58 12.0593 224.46 13.0422 225.701 13.0422C226.322 13.0422 226.891 12.7835 227.253 12.3697H226.322L225.805 11.542H225.442V12.3697H224.511V9.31756H225.856C226.684 9.31756 227.201 9.73141 227.201 10.4039C227.201 10.8178 227.046 11.1281 226.684 11.3351L227.305 12.318C227.615 11.9041 227.822 11.3868 227.822 10.8178ZM225.805 10.8178C226.115 10.8178 226.27 10.6626 226.27 10.4039C226.27 10.1453 226.115 9.99006 225.805 9.99006H225.494V10.766H225.805V10.8178Z" fill="#ACB1C3"/>
</svg>
