<svg width="54" height="40" viewBox="0 0 54 40" fill="none" xmlns="http://www.w3.org/2000/svg">
<path d="M40.3524 39.9015C39.8167 39.7719 39.2834 39.4435 39.2834 39.2431C39.2834 39.1594 39.371 38.971 39.4781 38.8245C39.667 38.5662 39.6848 38.5675 40.0675 38.8685C40.513 39.219 41.6187 39.2919 42.0038 38.9962C42.3068 38.7636 42.5616 38.2663 42.5616 37.9076V37.6153L42.0984 37.8977C41.1164 38.4964 39.7778 38.0928 39.248 37.0381C38.9484 36.4418 38.921 35.2213 39.1927 34.571C39.2997 34.3151 39.6012 33.9256 39.8629 33.7054C40.2899 33.3461 40.423 33.3111 41.1598 33.3644C41.6911 33.4029 42.0832 33.5165 42.2712 33.6866C42.5306 33.9214 42.5616 33.9242 42.5616 33.7136C42.5616 33.5454 42.6869 33.4777 42.9978 33.4777H43.4341L43.3898 36.1834L43.3455 38.8891L42.9054 39.3289C42.3013 39.9324 41.3564 40.1444 40.3524 39.9015ZM42.134 37.0501C42.4468 36.8286 42.4954 36.677 42.5316 35.8092C42.5694 34.9026 42.5422 34.7919 42.2029 34.4731C41.6667 33.9694 40.7959 33.9889 40.3436 34.5148C39.6053 35.3732 39.7932 36.7567 40.7107 37.2179C41.2429 37.4854 41.5748 37.4462 42.134 37.0501ZM23.3199 35.8294V33.4777H23.7475H24.1751V35.8294V38.1812H23.7475H23.3199V35.8294ZM25.6004 35.8294V33.4777H26.028C26.3111 33.4777 26.4556 33.5492 26.4556 33.6894C26.4556 33.8621 26.5408 33.8491 26.9188 33.6186C27.5907 33.209 28.6058 33.2368 29.1201 33.6789C29.5193 34.0222 29.5201 34.0262 29.569 36.102L29.618 38.1812H29.177H28.7361V36.6226C28.7361 35.7654 28.675 34.9034 28.6003 34.7071C28.3287 33.9927 27.4091 33.8832 26.7599 34.488C26.4819 34.747 26.4556 34.9191 26.4556 36.4764V38.1812H26.028H25.6004V35.8294ZM31.3729 37.9855C31.1189 37.7999 31.0827 37.5817 31.0406 35.9837C30.9934 34.1949 30.9924 34.1903 30.6486 34.1903C30.3759 34.1903 30.3039 34.1159 30.3039 33.834C30.3039 33.5489 30.3752 33.4777 30.6602 33.4777C30.9875 33.4777 31.0166 33.4254 31.0166 32.8363C31.0166 32.2186 31.0324 32.1949 31.4442 32.1949C31.8559 32.1949 31.8717 32.2186 31.8717 32.8363C31.8717 33.4743 31.8744 33.4777 32.3706 33.4777C32.8077 33.4777 32.8695 33.5218 32.8695 33.834C32.8695 34.1462 32.8077 34.1903 32.3706 34.1903H31.8717V35.5537C31.8717 37.1357 32.0021 37.4946 32.5561 37.4372C32.882 37.4034 32.9407 37.4517 32.9407 37.7536C32.9407 38.0747 32.8773 38.1141 32.2993 38.1518C31.9018 38.1778 31.5496 38.1145 31.3729 37.9855ZM34.7789 37.9775C34.0711 37.6694 33.672 36.9783 33.6063 35.9471C33.5577 35.1842 33.6028 34.964 33.9173 34.4274C34.1371 34.0523 34.482 33.7064 34.7747 33.5675C35.4602 33.2422 36.505 33.2685 37.0828 33.6256C37.6217 33.9586 38.1431 34.9243 38.1431 35.5894V36.0432H36.2902C35.2711 36.0432 34.4373 36.0785 34.4373 36.1216C34.4373 36.3465 34.9039 37.0521 35.1809 37.2461C35.6206 37.5541 36.4125 37.5233 36.9821 37.176C37.4402 36.8967 37.4683 36.8953 37.6543 37.1409C37.9161 37.4867 37.8568 37.611 37.2826 37.9189C36.7001 38.2313 35.4302 38.261 34.7789 37.9775ZM37.2879 35.3373C37.2879 34.7143 36.5192 34.0478 35.8007 34.0478C35.3851 34.0478 34.6454 34.6809 34.5101 35.1524C34.419 35.4698 34.4327 35.4731 35.853 35.4731C36.6674 35.4731 37.2879 35.4144 37.2879 35.3373ZM44.8421 35.8294V33.4777H45.2697C45.5725 33.4777 45.6973 33.5465 45.6973 33.7136C45.6973 33.9324 45.7159 33.9326 45.9561 33.7153C46.0984 33.5864 46.4191 33.4402 46.6687 33.3903C47.1014 33.3037 47.1226 33.3203 47.1226 33.7449C47.1226 34.1182 47.068 34.1903 46.7855 34.1903C46.6001 34.1903 46.2794 34.3233 46.0728 34.4857C45.7046 34.7754 45.6973 34.8144 45.6973 36.4812V38.1812H45.2697H44.8421V35.8294ZM47.9778 35.8294V33.4777H48.4054H48.833V35.8294V38.1812H48.4054H47.9778V35.8294ZM50.4062 37.9189C49.8284 37.6091 49.7723 37.4873 50.0425 37.13C50.2449 36.8623 50.2993 36.8698 50.9709 37.2582C51.5015 37.5651 52.3012 37.5248 52.6176 37.1751C52.9806 36.7741 52.7596 36.4522 51.9556 36.2112C50.9045 35.896 50.2479 35.5774 50.1071 35.3144C49.9307 34.9849 49.9368 34.3821 50.12 34.0399C50.4866 33.3549 52.0212 33.1088 52.9579 33.5848C53.5345 33.8778 53.5996 34.0228 53.3201 34.3926C53.127 34.6482 53.0963 34.6507 52.8524 34.43C52.3203 33.9484 51.0958 33.9443 50.912 34.4235C50.7685 34.7974 51.1941 35.1288 52.0692 35.3247C52.9992 35.5328 53.679 36.0996 53.679 36.667C53.679 37.2193 53.3804 37.7533 52.9457 37.9781C52.3804 38.2704 51.0017 38.2383 50.4062 37.9189ZM14.9746 34.4096C11.4429 33.7681 8.44889 32.1835 5.84192 29.5761C2.42005 26.1538 0.799927 22.199 0.799927 17.2685C0.799927 10.2588 4.81034 4.14978 11.2286 1.38273C14.9334 -0.214506 19.4585 -0.442313 23.3199 0.774017C29.724 2.79132 34.4149 8.3791 35.3052 15.0511C35.5087 16.5762 35.4025 19.4678 35.09 20.9118C34.1447 25.2787 31.5246 29.2104 27.9521 31.6228C27.0284 32.2466 25.8581 32.9075 25.6773 32.9075C25.635 32.9075 25.6004 28.8988 25.6004 23.9993V15.0911H22.3221H19.0439V24.8545V34.6179L17.5117 34.605C16.669 34.598 15.5273 34.51 14.9746 34.4096ZM23.7337 11.2836C24.9848 10.8379 26.033 9.47749 26.2523 8.01495C26.4693 6.56785 25.5286 4.91869 24.0492 4.15287C22.8273 3.5203 21.8654 3.51229 20.6403 4.12449C18.2312 5.32831 17.6154 8.19318 19.3436 10.1566C20.5369 11.5123 22.0218 11.8935 23.7337 11.2836ZM23.3159 32.5465C23.0405 32.2146 23.3159 31.8386 23.8343 31.8386C24.1971 31.8386 24.2463 31.8896 24.2463 32.2662C24.2463 32.62 24.1827 32.7011 23.8778 32.7366C23.6662 32.7612 23.427 32.6802 23.3159 32.5465ZM47.9738 32.5465C47.6984 32.2146 47.9738 31.8386 48.4922 31.8386C48.855 31.8386 48.9042 31.8896 48.9042 32.2662C48.9042 32.62 48.8406 32.7011 48.5357 32.7366C48.3241 32.7612 48.0849 32.6802 47.9738 32.5465Z" fill="#ACB1C3"/>
</svg>
