<svg width="61" height="40" viewBox="0 0 61 40" fill="none" xmlns="http://www.w3.org/2000/svg">
<path fill-rule="evenodd" clip-rule="evenodd" d="M36.075 17.9761H33.6683V30.8161H36.2187V26.5506C36.7576 27.247 37.5119 27.5952 38.3022 27.5952C40.0264 27.5952 41.4274 25.8977 41.4274 22.6333C41.4274 20.9358 41.0322 19.8477 40.6012 19.1512C40.0264 18.2807 39.1643 17.7584 38.2663 17.7584C37.4401 17.7584 36.6498 18.1502 36.075 18.8466V17.9761ZM38.9129 22.5898C38.9129 23.0685 38.9129 24.0696 38.5536 24.766C38.3381 25.1578 37.943 25.4189 37.5478 25.3754C36.5061 25.3754 36.2187 24.0696 36.2187 22.7203C36.2187 21.371 36.5061 20.0218 37.5478 20.0218C38.841 20.0653 38.9129 22.0675 38.9129 22.5898ZM27.1305 17.9761H24.7238V30.8161H27.2742V26.5506C27.8131 27.247 28.5674 27.5952 29.3577 27.5952C31.0819 27.5952 32.4829 25.8977 32.4829 22.6333C32.4829 20.9358 32.0877 19.8477 31.6567 19.1512C31.0819 18.2807 30.2198 17.7584 29.3218 17.7584C28.4956 17.7584 27.7053 18.1502 27.1305 18.8466V17.9761ZM29.9684 22.5898C29.9684 23.0685 29.9684 24.0696 29.6091 24.766C29.3936 25.1578 28.9985 25.4189 28.6033 25.3754C27.5616 25.3754 27.2383 24.0696 27.2383 22.7203C27.2383 21.371 27.5257 20.0218 28.5674 20.0218C29.8965 20.0653 29.9324 22.0675 29.9684 22.5898ZM42.6846 14.0587V27.4211H45.2351V12.2742L42.6846 14.0587Z" fill="#ACB1C3"/>
<path fill-rule="evenodd" clip-rule="evenodd" d="M51.9165 30.4244L50.6593 29.1186C50.9826 28.7704 51.27 28.4222 51.5573 28.0305L52.635 29.5539C52.3835 29.8585 52.168 30.1632 51.9165 30.4244ZM53.7845 32.3395L52.4913 30.9902C52.7068 30.7291 52.9224 30.4679 53.102 30.2067L54.2155 31.7737C54.0718 31.9913 53.9282 32.1654 53.7845 32.3395ZM55.5087 34.124L54.5388 33.123C54.6466 32.9924 54.7544 32.8618 54.8621 32.7312L55.6883 33.9064C55.6524 33.9935 55.5806 34.0805 55.5087 34.124ZM51.8447 26.3765L50.4078 25.5495L51.1981 23.8955L52.4913 24.9837C52.3117 25.4625 52.0962 25.9412 51.8447 26.3765ZM53.8922 27.5517L52.4194 26.6812C52.635 26.2459 52.8505 25.8107 53.066 25.3754L54.4311 26.5071C54.2155 26.8553 54.0718 27.247 53.8922 27.5517ZM56.0835 28.8575L54.5388 27.9434C54.6825 27.6387 54.8262 27.3341 54.9699 27.0294L56.3708 28.2046C56.299 28.4222 56.1912 28.6398 56.0835 28.8575ZM58.1669 30.0326L57.0174 29.3362C57.0893 29.1621 57.1611 29.0316 57.2689 28.8575L58.3465 29.728C58.2388 29.8585 58.2028 29.9456 58.1669 30.0326ZM52.9583 23.6779L51.4136 23.3297L51.8088 21.4581L53.2816 22.111C53.2456 22.6333 53.102 23.1991 52.9583 23.6779ZM55.1854 24.2002L53.5689 23.8085C53.7126 23.3297 53.8204 22.8509 53.8922 22.3286L55.4369 22.9815C55.365 23.4168 55.2932 23.8085 55.1854 24.2002ZM57.5922 24.7225L55.9038 24.3308C55.9757 23.9826 56.0475 23.6344 56.1194 23.2862L57.7359 23.9826C57.6999 24.2437 57.664 24.5049 57.5922 24.7225ZM59.8193 25.2448L58.5621 24.9402C58.598 24.766 58.6339 24.5919 58.7057 24.4178L59.9271 24.9402C59.8912 25.0272 59.8552 25.1578 59.8193 25.2448ZM53.4612 20.7617L51.8806 20.8923V18.9771L53.4612 19.1077C53.4612 19.3689 53.4971 19.6736 53.4971 19.9347C53.4971 20.1959 53.4971 20.457 53.4612 20.7617ZM55.7242 20.5441L54.0718 20.7182C54.0718 20.457 54.0718 20.1959 54.0718 19.9347C54.0718 19.6736 54.0718 19.4124 54.0718 19.1512L55.7242 19.3254C55.7242 19.543 55.7242 19.7171 55.7242 19.9347C55.7242 20.1523 55.7242 20.3264 55.7242 20.5441ZM58.1669 20.2829L56.4427 20.457C56.4427 20.2829 56.4427 20.1088 56.4427 19.9347C56.4427 19.7606 56.4427 19.5865 56.4427 19.4124L58.1669 19.5865V20.2829ZM60.43 20.1088L59.1368 20.2394V19.6736L60.43 19.8041V20.1088ZM53.3175 17.7149L51.8447 18.3678L51.4496 16.4962L52.9942 16.148C53.102 16.6703 53.2456 17.1926 53.3175 17.7149ZM55.4369 16.8444L53.8922 17.4973C53.8204 17.0185 53.7126 16.4962 53.5689 16.0174L55.1854 15.6257C55.2932 16.0609 55.365 16.4527 55.4369 16.8444ZM57.7718 15.8433L56.1553 16.5397C56.0835 16.1915 56.0116 15.8433 55.9398 15.4951L57.6281 15.1034C57.664 15.3645 57.6999 15.5822 57.7718 15.8433ZM59.8912 14.9293L58.6698 15.4516C58.6339 15.2775 58.598 15.1034 58.5261 14.9293L59.7834 14.6246C59.8552 14.7116 59.8912 14.7987 59.8912 14.9293ZM52.5272 14.8857L51.234 15.9739L50.4438 14.2764L51.8806 13.4494C52.0961 13.9282 52.3476 14.3634 52.5272 14.8857ZM54.3951 13.3188L53.0301 14.4505C52.8505 14.0152 52.635 13.5365 52.3835 13.1447L53.8563 12.2742C54.0718 12.6224 54.2155 12.9706 54.3951 13.3188ZM56.4068 11.6649L55.0058 12.84C54.8621 12.5354 54.7184 12.2307 54.5747 11.926L56.1194 11.012C56.1912 11.2296 56.299 11.4472 56.4068 11.6649ZM58.2747 10.0979L57.197 10.9684L56.9456 10.4897L58.0951 9.79325C58.2028 9.92383 58.2388 10.0109 58.2747 10.0979ZM51.1622 12.3613L50.1564 13.7976L49.0428 12.4483L50.2282 11.2296C50.5515 11.5778 50.8748 11.9695 51.1622 12.3613ZM52.635 10.3156L51.5573 11.839C51.27 11.4472 50.9826 11.099 50.6593 10.7508L51.9165 9.44505C52.168 9.7062 52.3835 10.0109 52.635 10.3156ZM54.2155 8.0087L53.102 9.57562C52.8864 9.31447 52.7068 9.05332 52.4913 8.79216L53.7845 7.44287C53.9282 7.6605 54.0718 7.8346 54.2155 8.0087ZM55.6883 5.91948L54.8621 7.09467C54.7544 6.96409 54.6466 6.83351 54.5388 6.70294L55.5087 5.70185C55.5806 5.7889 55.6524 5.87595 55.6883 5.91948ZM49.2943 10.3591L48.6117 12.1001L47.2467 11.1425L48.1448 9.57562C48.5399 9.79325 48.935 10.0544 49.2943 10.3591ZM50.2641 7.92165L49.5457 9.7062C49.1865 9.44505 48.8273 9.1839 48.4681 8.92274L49.402 7.26877C49.6894 7.4864 49.9768 7.70402 50.2641 7.92165ZM51.3418 5.22307L50.5874 7.09467C50.336 6.92057 50.0845 6.70294 49.8331 6.57236L50.803 4.87486C50.9826 4.96191 51.1622 5.09249 51.3418 5.22307ZM52.3117 2.74211L51.7369 4.13493C51.5932 4.04788 51.4855 3.96083 51.3418 3.87378L52.0602 2.56801C52.168 2.61153 52.2398 2.69859 52.3117 2.74211ZM47.0671 9.00979L46.7797 10.8814L45.2351 10.3591L45.7739 8.57454C46.205 8.70511 46.6361 8.83569 47.0671 9.00979ZM47.4982 6.35473L47.2108 8.31338C46.8157 8.13928 46.4205 8.0087 45.9895 7.92165L46.5283 6.05005C46.8516 6.1371 47.1749 6.22416 47.4982 6.35473ZM47.9292 3.43852L47.6059 5.48422C47.3186 5.39717 47.0312 5.26659 46.7438 5.22307L47.3186 3.26442C47.5341 3.30794 47.7496 3.35147 47.9292 3.43852ZM48.3603 0.696409L48.1088 2.2198L47.6419 2.08923L48.0729 0.609358L48.3603 0.696409ZM37.7275 11.2296L38.9488 12.4483L37.7993 13.7976L36.7576 12.3613C37.0809 11.9695 37.3683 11.5778 37.7275 11.2296ZM36.0032 9.44505L37.2605 10.7508C36.9372 11.099 36.6498 11.4472 36.3624 11.839L35.2848 10.3156C35.5362 10.0109 35.7518 9.7062 36.0032 9.44505ZM34.1353 7.4864L35.4285 8.83569C35.2129 9.09684 34.9974 9.31447 34.8178 9.61915L33.7042 8.05223C33.8479 7.8346 33.9916 7.6605 34.1353 7.4864ZM32.4111 5.70185L33.3809 6.70294C33.2732 6.83351 33.1654 6.96409 33.0576 7.09467L32.2314 5.91948C32.3033 5.83243 32.3751 5.7889 32.4111 5.70185ZM39.8109 9.5321L40.709 11.099L39.3439 12.0566L38.6614 10.3156C38.9847 10.0544 39.3799 9.79325 39.8109 9.5321ZM38.5177 7.31229L39.4517 8.96627C39.0925 9.1839 38.6974 9.44505 38.3741 9.74973L37.6556 7.96518C37.943 7.6605 38.2304 7.4864 38.5177 7.31229ZM37.1168 4.83134L38.0867 6.52884C37.8352 6.70294 37.5838 6.87704 37.3323 7.05114L36.6139 5.17954C36.7576 5.09249 36.9731 4.96191 37.1168 4.83134ZM35.8595 2.56801L36.578 3.87378C36.4343 3.96083 36.3265 4.04788 36.1828 4.13493L35.644 2.74211C35.6799 2.69859 35.7518 2.61153 35.8595 2.56801ZM42.1458 8.61806L42.6487 10.4026L41.1041 10.9249L40.8167 9.05332C41.2837 8.83569 41.7148 8.70511 42.1458 8.61806ZM41.3915 6.00653L41.9303 7.87813C41.5352 7.96518 41.1041 8.09576 40.709 8.26986L40.4216 6.31121C40.7449 6.22416 41.0682 6.09358 41.3915 6.00653ZM40.5653 3.22089L41.14 5.17954C40.8527 5.26659 40.5653 5.35364 40.2779 5.4407L39.9905 3.43852C40.2061 3.35147 40.3857 3.30794 40.5653 3.22089ZM39.8109 0.609358L40.242 2.08923L39.8109 2.2198L39.5595 0.696409C39.6672 0.696409 39.7391 0.652884 39.8109 0.609358ZM44.6244 8.40043L44.7681 10.3156H43.1876L43.3313 8.40043C43.5468 8.40043 43.7623 8.35691 44.0138 8.35691C44.2652 8.35691 44.4089 8.40043 44.6244 8.40043ZM44.4807 5.70185L44.6244 7.70402C44.4089 7.70402 44.1934 7.6605 43.9778 7.6605C43.7623 7.6605 43.5468 7.6605 43.3672 7.70402L43.5109 5.70185C43.6905 5.70185 43.8342 5.70185 44.0138 5.70185C44.1934 5.70185 44.3011 5.70185 44.4807 5.70185ZM44.2652 2.74211L44.4089 4.83134C44.2652 4.83134 44.1215 4.83134 43.9419 4.83134C43.7623 4.83134 43.6545 4.83134 43.5109 4.83134L43.6545 2.74211H44.2652ZM44.0856 0L44.1934 1.56692H43.7264L43.8342 0H44.0856ZM50.1923 28.6398L49.0069 27.4211L50.1564 26.0718L51.1622 27.5082C50.8748 27.8999 50.5515 28.2916 50.1923 28.6398Z" fill="#ACB1C3"/>
<path fill-rule="evenodd" clip-rule="evenodd" d="M0.799927 39.8694H1.48244V38.6072H2.45233C2.81154 38.6072 3.13484 38.6072 3.38629 38.259C3.52998 38.0849 3.60182 37.8237 3.5659 37.5626C3.5659 37.3449 3.52998 37.0838 3.42221 36.9097C3.20668 36.5179 2.81154 36.5179 2.52417 36.5179H0.799927V39.8694ZM1.48244 37.0838H2.27272C2.56009 37.0838 2.66786 37.0838 2.77562 37.1708C2.84746 37.2579 2.88339 37.3885 2.88339 37.5626C2.88339 37.9978 2.56009 37.9978 2.34456 37.9978H1.48244V37.0838ZM3.74551 39.8694H4.42802V38.6072H5.39791C5.75712 38.6072 6.08042 38.6072 6.33187 38.259C6.47556 38.0849 6.51148 37.8237 6.51148 37.5626C6.51148 37.3449 6.47556 37.0838 6.36779 36.9097C6.15226 36.5179 5.75712 36.5179 5.46975 36.5179H3.74551V39.8694ZM4.42802 37.0838H5.2183C5.50567 37.0838 5.61344 37.0838 5.7212 37.1708C5.79304 37.2579 5.82897 37.3885 5.82897 37.5626C5.82897 37.9978 5.50567 37.9978 5.29014 37.9978H4.42802V37.0838ZM6.83477 39.8694H9.06192V39.2601H7.51729V36.5179H6.83477V39.8694ZM10.8221 39.8694H13.4803V39.2601H11.5046V38.4766H13.3366V37.8672H11.5046V37.1273H13.4084V36.5179H10.8221V39.8694ZM13.8036 39.8694H14.4502V36.5179H13.8036V39.8694ZM17.5035 38.7813C17.5035 38.5201 17.5035 38.1284 17.2161 37.8237C16.9288 37.432 16.4618 37.3449 16.1744 37.3449C15.456 37.3449 14.8453 37.7367 14.8453 38.6072C14.8453 38.9989 14.989 39.3471 15.2045 39.6083C15.456 39.8694 15.8152 39.9565 16.1744 39.9565C16.7492 39.9565 17.2161 39.6953 17.5035 39.1295L16.821 39.0424C16.7492 39.1295 16.6055 39.3906 16.1744 39.3906C15.9589 39.3906 15.7434 39.3036 15.5997 39.1295C15.5278 39.0424 15.4919 38.9119 15.4919 38.8248L17.5035 38.7813ZM15.5637 38.346C15.5997 38.2154 15.6715 38.1284 15.7434 38.0413C15.887 37.9543 16.0307 37.9108 16.1744 37.9108C16.3181 37.9108 16.4618 37.9543 16.6055 38.0413C16.7132 38.1284 16.7851 38.2154 16.7851 38.346H15.5637ZM19.6229 38.9989C19.587 39.086 19.5151 39.173 19.4433 39.2165C19.2996 39.3036 19.1918 39.3471 19.0122 39.3471C18.5452 39.3471 18.3656 38.9554 18.3656 38.6507C18.3656 38.259 18.653 37.9543 19.0122 37.9543C19.3715 37.9543 19.4792 38.1284 19.5511 38.2154L20.2336 38.1284C20.1617 37.9543 20.054 37.7802 19.9103 37.6496C19.6588 37.432 19.3355 37.3449 19.0122 37.3449C18.4375 37.3449 17.6831 37.6931 17.6831 38.6507C17.6831 39.5212 18.2938 39.9565 18.9763 39.9565C19.3714 39.9565 19.9821 39.7388 20.2695 39.1295L19.6229 38.9989ZM20.5569 37.432H20.2336V37.9108H20.5569V39.2165C20.5569 39.3906 20.5569 39.6518 20.8083 39.7824C20.9161 39.8259 21.0598 39.8694 21.2035 39.8694C21.3471 39.8694 21.5268 39.8694 21.6704 39.8259V39.2601C21.5986 39.2601 21.5268 39.2601 21.4549 39.2601C21.2753 39.2601 21.2035 39.2165 21.2035 38.9554V37.8672H21.6345V37.3885H21.2035V36.7356H20.5569V37.432ZM22.5685 37.432H21.9219V39.8694H22.5685V38.6942C22.5685 38.4766 22.6044 38.3025 22.784 38.1719C22.9277 38.0849 23.0714 38.0413 23.2151 38.0849C23.2869 38.0849 23.3228 38.0849 23.3947 38.0849V37.3885C22.8199 37.3885 22.6403 37.6931 22.5685 37.8672V37.432ZM23.6821 36.605V37.1273H24.3286V36.605H23.6821ZM23.6821 37.432V39.8694H24.3286V37.432H23.6821ZM26.6276 38.9989C26.5917 39.086 26.5199 39.173 26.448 39.2165C26.3043 39.3036 26.1966 39.3471 26.0529 39.3471C25.5859 39.3471 25.4063 38.9554 25.4063 38.6507C25.4063 38.259 25.6937 37.9543 26.0529 37.9543C26.4121 37.9543 26.5199 38.1284 26.5917 38.2154L27.2742 38.1284C27.2024 37.9543 27.0946 37.7802 26.9509 37.6496C26.6995 37.432 26.3762 37.3449 26.0529 37.3449C25.4781 37.3449 24.7238 37.6931 24.7238 38.6507C24.7238 39.5212 25.3345 39.9565 26.017 39.9565C26.448 39.9565 27.0228 39.7388 27.3101 39.1295L26.6276 38.9989ZM28.9266 38.4331C28.9266 38.8248 28.9266 39.2601 29.3577 39.6518C29.5014 39.7824 29.681 39.8694 29.8247 39.9129C30.0043 39.9565 30.2198 40 30.3994 40C30.8305 40 31.3693 39.8694 31.6567 39.4777C31.9081 39.173 31.9081 38.8248 31.9081 38.4766V36.5179H31.2256V38.5201C31.2256 38.8683 31.1897 38.9554 31.1178 39.0424C31.0101 39.2165 30.8305 39.3036 30.579 39.3036C30.3635 39.3471 30.148 39.3036 29.9324 39.173C29.681 38.9989 29.6091 38.7813 29.6091 38.4766V36.5179H28.9266V38.4331ZM32.4829 37.432H32.1596V37.9108H32.4829V39.2165C32.4829 39.3906 32.4829 39.6518 32.7343 39.7824C32.8421 39.8259 32.9858 39.8694 33.1295 39.8694C33.2732 39.8694 33.4528 39.8694 33.5964 39.8259V39.2601C33.5246 39.2601 33.4528 39.2601 33.3809 39.2601C33.2013 39.2601 33.1295 39.2165 33.1295 38.9554V37.8672H33.5605V37.3885H33.1295V36.7356H32.4829V37.432ZM33.8479 36.605V37.1273H34.4945V36.605H33.8479ZM33.8479 37.432V39.8694H34.4945V37.432H33.8479ZM35.0333 39.8694H35.6799V36.5179H35.0333V39.8694ZM36.2187 36.605V37.1273H36.8653V36.605H36.2187ZM36.2187 37.432V39.8694H36.8653V37.432H36.2187ZM37.476 37.432H37.1527V37.9108H37.476V39.2165C37.476 39.3906 37.476 39.6518 37.7274 39.7824C37.8352 39.8259 37.9789 39.8694 38.1226 39.8694C38.2663 39.8694 38.4459 39.8694 38.5896 39.8259V39.2601C38.5177 39.2601 38.4459 39.2601 38.374 39.2601C38.1944 39.2601 38.1226 39.2165 38.1226 38.9554V37.8672H38.5536V37.3885H38.1226V36.7356H37.476V37.432ZM38.841 36.605V37.1273H39.4876V36.605H38.841ZM38.841 37.432V39.8694H39.4876V37.432H38.841ZM42.541 38.7813C42.541 38.5201 42.541 38.1284 42.2536 37.8237C41.9662 37.432 41.4992 37.3449 41.2118 37.3449C40.4934 37.3449 39.8827 37.7367 39.8827 38.6072C39.8827 38.9989 40.0264 39.3471 40.242 39.6083C40.4934 39.8694 40.8526 39.9565 41.2118 39.9565C41.7866 39.9565 42.2536 39.6953 42.541 39.1295L41.8584 39.0424C41.7866 39.1295 41.6429 39.3906 41.2118 39.3906C40.9963 39.3906 40.7808 39.3036 40.6371 39.1295C40.5653 39.0424 40.5293 38.9119 40.5293 38.8248L42.541 38.7813ZM40.5653 38.346C40.6012 38.2154 40.673 38.1284 40.7449 38.0413C40.8885 37.9543 41.0322 37.9108 41.1759 37.9108C41.3196 37.9108 41.4633 37.9543 41.607 38.0413C41.7148 38.1284 41.7866 38.2154 41.7866 38.346H40.5653ZM42.7924 39.086C42.9002 39.5212 43.1516 39.9129 44.0497 39.9129C44.6244 39.9129 44.8759 39.7388 45.0196 39.5647C45.1273 39.4342 45.1992 39.2165 45.1992 39.0424C45.1992 38.7813 45.0914 38.5636 44.9118 38.4766C44.7681 38.3895 44.6244 38.346 44.4448 38.346C43.8701 38.259 43.8341 38.259 43.6904 38.2154C43.5827 38.1719 43.5108 38.1284 43.5108 38.0413C43.5108 37.8672 43.6904 37.7802 43.9778 37.7802C44.3011 37.7802 44.4448 37.9108 44.5166 38.0849L45.1992 38.0413C45.1632 37.8237 45.0555 37.6496 44.9118 37.5626C44.6244 37.3014 44.2293 37.3014 44.0137 37.3014C43.3312 37.3014 42.8642 37.5626 42.8642 38.1284C42.8642 38.6942 43.4031 38.7813 43.5827 38.8248C43.7264 38.8683 43.906 38.8683 44.0497 38.8683C44.337 38.9119 44.5166 38.9554 44.5166 39.1295C44.5166 39.2601 44.4089 39.3036 44.373 39.3471C44.2652 39.3906 44.1574 39.3906 44.0137 39.3906C43.7623 39.3906 43.5108 39.3471 43.439 38.9989L42.7924 39.086Z" fill="#ACB1C3"/>
<path d="M55.4727 31.3819C55.4727 31.2514 55.4727 31.1643 55.5087 31.0773C55.5446 30.9902 55.5805 30.8596 55.6164 30.7726C55.6524 30.6855 55.7242 30.5985 55.7601 30.5114C55.8679 30.3808 56.0116 30.2503 56.1912 30.2067C56.3708 30.1632 56.5145 30.1632 56.6941 30.2067C56.7659 30.2503 56.8378 30.2938 56.9096 30.3373C56.9815 30.3809 57.0533 30.4679 57.0892 30.5114C57.1611 30.5985 57.197 30.6855 57.2329 30.7726C57.2688 30.8596 57.3048 30.9467 57.3407 31.0773C57.3766 31.1643 57.3766 31.2949 57.3766 31.3819C57.3766 31.5125 57.3766 31.5996 57.3407 31.7301C57.3048 31.8172 57.3048 31.9478 57.2329 32.0348C57.197 32.1219 57.1251 32.2089 57.0892 32.296C57.0174 32.383 56.9815 32.4265 56.9096 32.4701C56.8378 32.5136 56.7659 32.5571 56.6941 32.6007C56.4426 32.6877 56.1912 32.6442 55.9757 32.4701C55.9038 32.4265 55.832 32.3395 55.796 32.296C55.7242 32.2089 55.6883 32.1219 55.6524 32.0348C55.6164 31.9478 55.5805 31.8607 55.5446 31.7301C55.4727 31.5996 55.4727 31.5125 55.4727 31.3819ZM55.5805 31.3819C55.5805 31.469 55.5805 31.556 55.6164 31.6866C55.6524 31.7737 55.6524 31.8607 55.6883 31.9478C55.7601 32.1219 55.8679 32.2524 55.9757 32.3395C56.0475 32.383 56.1193 32.4266 56.1912 32.4266C56.3349 32.4701 56.4786 32.4701 56.6222 32.4266C56.6941 32.383 56.7659 32.383 56.8378 32.3395C56.9096 32.296 56.9455 32.2524 57.0174 32.1654C57.0533 32.1219 57.1251 32.0348 57.1611 31.9478C57.197 31.8607 57.2329 31.7737 57.2329 31.6866C57.3048 31.4255 57.2688 31.1208 57.1611 30.8596C57.1251 30.7726 57.0892 30.7291 57.0174 30.642C56.9815 30.5985 56.9096 30.5114 56.8378 30.4679C56.7659 30.4244 56.6941 30.3808 56.6222 30.3808C56.5504 30.3373 56.4786 30.3373 56.4067 30.3373C56.2989 30.3373 56.1912 30.3808 56.0834 30.4244C55.9757 30.4679 55.9038 30.555 55.832 30.642C55.7601 30.7291 55.6883 30.8596 55.6524 30.9902C55.6164 31.0773 55.5805 31.2514 55.5805 31.3819ZM56.1912 31.469V32.0348H56.0475V30.6855H56.4067C56.5145 30.6855 56.6222 30.7291 56.6941 30.7726C56.7659 30.8596 56.8018 30.9467 56.8018 31.0773C56.8018 31.1643 56.8019 31.2078 56.7659 31.2514C56.73 31.2949 56.6941 31.3384 56.6222 31.3819C56.6941 31.3819 56.73 31.469 56.7659 31.5125C56.8019 31.556 56.8018 31.6431 56.8018 31.7301V31.8172C56.8018 31.8607 56.8018 31.9042 56.8018 31.9478C56.8018 31.9913 56.8019 31.9913 56.8378 32.0348V32.0783H56.6941V32.0348C56.6941 31.9913 56.6941 31.9913 56.6941 31.9478C56.6941 31.9042 56.6941 31.9042 56.6941 31.9042V31.7301C56.6941 31.6431 56.6941 31.5996 56.6582 31.556C56.6222 31.5125 56.5504 31.469 56.4786 31.5125L56.1912 31.469ZM56.1912 31.3384H56.4426C56.4786 31.3384 56.5145 31.3384 56.5504 31.3384C56.5863 31.3384 56.6222 31.2949 56.6222 31.2949C56.6582 31.2949 56.6582 31.2514 56.6941 31.2078C56.6941 31.1643 56.73 31.1208 56.73 31.1208C56.73 31.0773 56.73 31.0337 56.73 30.9902C56.73 30.9467 56.6941 30.9467 56.6941 30.9032C56.6582 30.8596 56.6222 30.8596 56.6222 30.8596C56.5863 30.8596 56.5504 30.8596 56.4786 30.8596H56.263L56.1912 31.3384Z" fill="#ACB1C3"/>
</svg>
