<svg width="121" height="94" viewBox="0 0 121 94" fill="none" xmlns="http://www.w3.org/2000/svg">
<path d="M56.0135 77.8857V7.52H30.5899C25.0158 7.52 20.5293 8.46 16.8585 10.34C13.1877 12.22 10.4686 14.7714 8.70117 18.1286C6.93376 21.4857 5.98207 25.2457 5.98207 29.5429C5.98207 33.84 6.93376 37.6 8.70117 40.9571C10.4686 44.18 13.1877 46.7314 16.8585 48.6114C20.5293 50.3571 25.0158 51.2971 30.5899 51.2971H49.7596V42.1657H31.5416C28.0068 42.1657 25.2877 41.6286 23.1124 40.6886C20.9371 39.7486 19.3057 38.2714 18.218 36.3914C17.1304 34.5114 16.7225 32.2286 16.7225 29.6771C16.7225 27.1257 17.2663 24.7086 18.354 22.8286C19.4416 20.9486 20.9371 19.3371 23.2484 18.3971C25.4236 17.3229 28.2787 16.7857 31.8135 16.7857H45.2731V78.02H56.0135V77.8857ZM20.9371 46.1943L3.39893 77.8857H15.6349L32.9012 46.1943H21.0731H20.9371Z" fill="url(#paint0_linear_712_164)"/>
<path d="M111.347 93.4629L94.8966 60.8314H71.3764V91.3143H61.8595V18.1286H84.0202L119.776 89.1657L111.211 93.3286L111.347 93.4629ZM71.3764 51.4314H90.1382L78.1741 27.5286H71.3764V51.4314Z" fill="white"/>
<defs>
<linearGradient id="paint0_linear_712_164" x1="76.1349" y1="72.6486" x2="-12.7951" y2="13.9" gradientUnits="userSpaceOnUse">
<stop stop-color="#516CF7"/>
<stop offset="1" stop-color="#B1BDFB"/>
</linearGradient>
</defs>
</svg>
